<svg width="326" height="1348" viewBox="0 0 326 1348" fill="none" xmlns="http://www.w3.org/2000/svg">
<path d="M304.371 12.0441C303.418 12.1892 302.49 12.5001 301.686 12.9615L298.311 7.20493L298.92 3.72302L300.625 3.46329C301.077 3.39452 301.37 2.95443 301.296 2.45719C301.222 1.95996 300.813 1.62681 300.361 1.69558L295.344 2.45948C294.893 2.52825 294.599 2.96834 294.674 3.46557C294.748 3.96281 295.157 4.29596 295.609 4.22719L297.264 3.97509L296.783 6.59044L283.238 8.65295L283.781 6.41023C283.941 5.67804 283.438 5.27615 282.805 5.37254L277.788 6.13644C277.336 6.20521 277.043 6.64531 277.117 7.14254C277.192 7.63978 277.601 7.97293 278.052 7.90416L281.915 7.31598L279.922 16.3326C279.078 16.1788 278.2 16.1429 277.297 16.2804C272.532 17.0061 269.263 21.9102 270.047 27.1568C270.832 32.4034 275.389 36.1159 280.154 35.3903C284.92 34.6647 288.189 29.7605 287.405 24.5139C286.851 20.8134 284.474 17.9552 281.475 16.7737L282.378 12.5126L293.858 24.0958C294.108 24.3446 294.459 24.2863 294.651 24.2571L297.36 23.8445C298.488 28.6438 302.77 31.8896 307.285 31.2022C312.051 30.4765 315.32 25.5724 314.535 20.3258C313.743 15.0232 309.186 11.3106 304.37 12.044L304.371 12.0441ZM285.883 24.6316C286.528 28.9399 283.845 32.9635 279.932 33.5594C276.019 34.1552 272.28 31.1094 271.636 26.801C270.992 22.4927 273.674 18.4691 277.587 17.8733C278.289 17.7663 278.958 17.7776 279.593 17.9069L277.957 25.4999C277.873 25.9646 278.148 26.4312 278.524 26.5435C278.633 26.5833 278.733 26.5681 278.833 26.5528C279.134 26.5069 279.402 26.2403 279.453 25.8935L281.089 18.3004C283.553 19.3375 285.446 21.7044 285.883 24.6316ZM304.464 20.8988L298.645 21.7849C298.515 19.2061 299.548 16.8454 301.273 15.3402L304.464 20.8988ZM293.955 21.6513L282.842 10.4634L296.488 8.38558L293.955 21.6513ZM295.484 22.2661L297.898 9.58406L300.381 13.8383C298.146 15.7039 296.803 18.7328 297.039 22.0297L295.484 22.2661ZM306.973 29.4421C303.31 29.9997 299.846 27.4202 298.858 23.56L305.932 22.4829C306.183 22.4447 306.409 22.2408 306.526 21.997C306.644 21.7532 306.594 21.4217 306.453 21.161L302.528 14.4713C303.147 14.1511 303.883 13.926 304.585 13.819C308.591 13.1524 312.28 16.2063 312.924 20.5142C313.568 24.8226 310.936 28.8386 306.973 29.4421Z" fill="#990711"/>
<path d="M325 34.5C261.167 34 136.1 47.4 146.5 105C159.5 177 316 343.5 245 391.5C174 439.5 -78.4999 637.5 27.0001 759C132.5 880.5 430.5 874.5 301 1087.5C197.4 1257.9 156.167 1331.5 148.5 1347" stroke="#990711" stroke-width="2" stroke-dasharray="30 30"/>
</svg>
