<svg width="32" height="38" viewBox="0 0 32 38" fill="none" xmlns="http://www.w3.org/2000/svg">
<path d="M26.8332 0.666748V5.66675H31.8332V9.00008H26.8332V14.0001H23.4998V9.00008H18.4998V5.66675H23.4998V0.666748H26.8332ZM13.4998 20.6667C11.6665 20.6667 10.1665 19.1667 10.1665 17.3334C10.1665 15.5001 11.6665 14.0001 13.4998 14.0001C15.3332 14.0001 16.8332 15.5001 16.8332 17.3334C16.8332 19.1667 15.3332 20.6667 13.4998 20.6667ZM15.1665 4.10008V7.46675C14.6152 7.37963 14.058 7.33506 13.4998 7.33341C7.9165 7.33341 3.49984 11.6167 3.49984 17.6667C3.49984 21.5667 6.74984 26.7334 13.4998 32.9001C20.2498 26.7334 23.4998 21.5834 23.4998 17.6667V17.3334H26.8332V17.6667C26.8332 23.2001 22.3832 29.7501 13.4998 37.3334C4.6165 29.7501 0.166504 23.2001 0.166504 17.6667C0.166504 9.36675 6.49984 4.00008 13.4998 4.00008C14.0665 4.00008 14.6165 4.03341 15.1665 4.10008Z" fill="#990711"/>
</svg>
