<svg width="40" height="40" viewBox="0 0 40 40" fill="none" xmlns="http://www.w3.org/2000/svg">
<path d="M19.9998 4.16675C12.6332 4.16675 6.6665 5.00008 6.6665 10.8334V27.5001C6.6665 28.9667 7.3165 30.2834 8.33317 31.2001V34.1667C8.33317 35.0834 9.08317 35.8334 9.99984 35.8334H11.6665C12.5832 35.8334 13.3332 35.0834 13.3332 34.1667V32.5001H26.6665V34.1667C26.6665 35.0834 27.4165 35.8334 28.3332 35.8334H29.9998C30.9165 35.8334 31.6665 35.0834 31.6665 34.1667V31.2001C32.6832 30.2834 33.3332 28.9667 33.3332 27.5001V10.8334C33.3332 5.00008 27.3665 4.16675 19.9998 4.16675ZM29.4332 9.15008H10.5665C11.4832 8.26675 13.8498 7.50008 19.9998 7.50008C26.1498 7.50008 28.5165 8.26675 29.4332 9.15008ZM29.9998 12.4834V17.5001H9.99984V12.4834H29.9998ZM29.4332 28.7167L28.9498 29.1667H11.0498L10.5665 28.7167C10.3498 28.5334 9.99984 28.1167 9.99984 27.5001V20.8334H29.9998V27.5001C29.9998 28.1167 29.6498 28.5334 29.4332 28.7167Z" fill="#990711"/>
<path d="M14.1665 27.5001C15.5472 27.5001 16.6665 26.3808 16.6665 25.0001C16.6665 23.6194 15.5472 22.5001 14.1665 22.5001C12.7858 22.5001 11.6665 23.6194 11.6665 25.0001C11.6665 26.3808 12.7858 27.5001 14.1665 27.5001Z" fill="#990711"/>
<path d="M25.8332 27.5001C27.2139 27.5001 28.3332 26.3808 28.3332 25.0001C28.3332 23.6194 27.2139 22.5001 25.8332 22.5001C24.4525 22.5001 23.3332 23.6194 23.3332 25.0001C23.3332 26.3808 24.4525 27.5001 25.8332 27.5001Z" fill="#990711"/>
</svg>
