<svg width="633" height="30" viewBox="0 0 633 30" fill="none" xmlns="http://www.w3.org/2000/svg">
<path fill-rule="evenodd" clip-rule="evenodd" d="M0.197636 0.224023C0.088952 0.345155 0 7.0943 0 15.2223V30H316.5H633V15.2223C633 7.0943 632.911 0.345155 632.802 0.224023C632.399 -0.225943 631.494 0.699822 631.004 2.06334C630.727 2.8369 630.43 3.46979 630.345 3.46979C630.26 3.46979 629.356 2.98282 628.337 2.38728C626.921 1.55961 626.261 1.35959 625.535 1.53727C624.19 1.86645 621.843 4.29257 620.715 6.52111C619.001 9.90685 617.085 9.925 614.232 6.5829C612.845 4.95827 612.379 4.60046 612.081 4.93174C611.343 5.75487 611.684 7.13235 613.121 9.12142C614.054 10.4134 617.892 13.2441 618.71 13.2441C619.558 13.2441 620.725 11.9305 621.935 9.61328C623.255 7.08453 624.176 6.45129 626.545 6.44326C628.852 6.43593 629.751 6.8852 630.78 8.5587C631.362 9.50506 631.538 10.2689 631.561 11.9486C631.59 14.0592 631.57 14.1143 630.808 14.0309C630.377 13.9838 629.153 13.8452 628.087 13.723L626.15 13.5013L625.505 14.6816C624.733 16.0915 624.636 18.9627 625.3 20.7333C625.763 21.969 627.124 23.2236 627.626 22.878C627.786 22.7677 627.845 21.6744 627.757 20.4484C627.617 18.5023 627.68 18.1256 628.262 17.4774C629.257 16.3691 630.734 16.4801 631.158 17.6949C631.839 19.6448 630.888 24.6123 629.63 25.677C628.401 26.7165 627.64 26.2589 621.098 20.5458C611.1 11.8156 606.496 7.76803 602.932 4.57603C601.123 2.95594 599.336 1.47443 598.961 1.28418C596.889 0.230656 595.341 2.6648 595.29 7.0587C595.266 9.12107 595.371 9.85519 595.728 10.1079C596.521 10.6696 597.285 10.4926 598.129 9.55219C598.818 8.78456 598.91 8.44001 598.761 7.19588C598.666 6.39439 598.491 5.3852 598.374 4.95338C598.192 4.28245 598.277 4.16795 598.958 4.16795C599.396 4.16795 599.98 4.41929 600.256 4.72648C601.723 6.36193 602.148 10.4629 601.056 12.4586C600.492 13.4884 600.294 13.5932 598.911 13.5932C598.073 13.5932 596.931 13.4158 596.374 13.1994C595.539 12.8747 595.273 12.9027 594.865 13.3582C594.43 13.8434 594.419 14.1573 594.775 15.9317C595.082 17.461 595.467 18.2712 596.357 19.2636C597.471 20.505 597.64 20.5748 599.528 20.5734C601.842 20.572 603.285 19.7918 604.124 18.089C605.861 14.5664 607.103 13.4225 608.568 13.9963C609.917 14.5245 613.037 17.3482 613.955 18.8727C614.944 20.5134 615.032 21.1857 614.39 22.1656C613.967 22.81 613.857 22.7381 612.119 20.6834C609.171 17.1981 607.714 17.2383 605.63 20.861C604.044 23.6195 602.743 24.9432 601.121 25.4497C600.082 25.7744 599.756 25.6972 598.094 24.732C596.337 23.7113 596.21 23.6858 595.824 24.274C595.599 24.6168 595.415 25.0755 595.415 25.2933C595.415 26.0334 593.931 27.2681 593.185 27.1487C592.546 27.0464 592.177 26.5905 590.873 24.2967C590.596 23.8094 590.342 23.8649 588.68 24.7742C587.016 25.6847 586.664 25.7607 585.618 25.4385C584.04 24.953 582.407 23.298 581.248 21.0101C579.367 17.2948 577.65 17.211 574.666 20.6889C572.905 22.7426 572.797 22.8121 572.371 22.1663C571.777 21.2663 571.809 20.6125 572.506 19.353C573.856 16.9136 577.415 13.9422 578.987 13.9422C580.106 13.9422 581.099 14.9874 582.425 17.5598C583.606 19.8494 584.743 20.572 587.169 20.5734C588.799 20.5744 589.255 20.4313 590.077 19.6605C591.621 18.2122 592.602 15.2635 592.111 13.5411C591.939 12.9376 591.747 12.8615 590.92 13.0688C586.953 14.0623 586.242 13.9258 585.534 12.0356C584.359 8.90289 585.735 4.16795 587.821 4.16795C588.514 4.16795 588.553 4.25801 588.319 5.30246C587.93 7.02937 588.033 9.00727 588.539 9.56056C589.301 10.3917 590.565 10.5705 591.141 9.92815C592.276 8.66342 591.455 2.68959 589.99 1.54565C588.547 0.419509 588.752 0.283367 579.107 8.76326C574.51 12.8049 566.909 19.4672 562.745 23.1056C558.793 26.5577 558.058 26.8038 556.773 25.1027C555.806 23.8216 555.57 22.5621 555.697 19.353C555.791 16.9628 555.813 16.907 556.675 16.7967C558.632 16.5467 559.803 18.6629 559.073 21.1295C558.182 24.1393 560.659 23.0861 561.694 20.0149C562.188 18.5508 562.22 18.0485 561.914 16.5125C561.406 13.9527 560.786 13.4396 558.539 13.7234C554.828 14.1918 555.177 14.328 555.086 12.3714C555.026 11.0759 555.188 10.2744 555.713 9.26245C556.843 7.08348 557.865 6.43698 560.178 6.43698C562.624 6.43698 563.473 7.04648 565.056 9.93967C567.041 13.5677 567.978 13.8899 570.677 11.8743C574.355 9.12875 576.019 6.19158 574.627 4.90451C574.288 4.59034 573.894 4.90626 572.73 6.42476C571.717 7.74674 570.887 8.46584 570.055 8.74371C568.099 9.39719 567.454 8.99784 565.858 6.1441C564.421 3.57486 562.811 1.97327 561.235 1.54495C560.649 1.38577 559.864 1.63012 558.504 2.39566C557.453 2.98631 556.526 3.46979 556.443 3.46979C556.36 3.46979 556.018 2.7786 555.683 1.93348C554.66 -0.644492 552.856 -0.644492 551.832 1.93348C551.497 2.7786 551.153 3.46979 551.068 3.46979C550.982 3.46979 550.098 2.99678 549.101 2.41905C547.72 1.61791 547.054 1.42102 546.295 1.58998C544.923 1.89578 542.624 4.24579 541.472 6.52111C539.785 9.85379 537.832 9.91453 535.078 6.72009C533.994 5.46234 533.244 4.85739 532.935 4.98969C531.886 5.43826 532.611 7.75372 534.39 9.63771C535.896 11.2323 538.757 13.2441 539.519 13.2441C540.319 13.2441 541.504 11.8872 542.692 9.61328C544.016 7.07824 544.949 6.43698 547.312 6.43698C549.628 6.43698 550.51 6.88625 551.567 8.60548C552.187 9.61432 552.347 10.3083 552.347 11.9954C552.348 14.0487 552.323 14.114 551.565 14.0309C551.134 13.9838 549.91 13.8452 548.845 13.723C546.914 13.502 546.906 13.5048 546.289 14.6355C545.338 16.3788 545.214 17.8261 545.841 19.899C546.837 23.194 549.221 24.1843 548.447 20.9815C547.839 18.4642 548.757 16.7349 550.703 16.7349C551.357 16.7349 551.658 16.9632 551.886 17.6303C552.588 19.6871 551.831 24.1351 550.555 25.4605C549.185 26.8824 548.778 26.6146 538.088 17.2693C532.494 12.3794 526.332 6.95223 524.393 5.20926C522.455 3.46629 520.474 1.78756 519.991 1.47827C517.766 0.0554167 516.102 2.40997 516.048 7.0587C516.023 9.11758 516.129 9.85763 516.485 10.1167C517.057 10.5324 518.354 10.2392 518.983 9.55254C519.49 8.99819 519.596 6.65795 519.182 5.12792C518.949 4.2643 519 4.16795 519.685 4.16795C521.948 4.16795 523.339 9.67018 521.792 12.4981C521.153 13.6668 521.141 13.6714 519.209 13.4926C518.142 13.3938 516.955 13.2018 516.572 13.066C514.729 12.4108 515.143 17.2508 517.111 19.352C517.942 20.2397 518.357 20.3961 520.176 20.5071C521.984 20.617 522.434 20.5189 523.376 19.8086C523.979 19.3537 524.826 18.2551 525.259 17.3667C526.802 14.1995 527.875 13.3422 529.398 14.0609C531.977 15.2778 535.591 19.2752 535.591 20.9096C535.591 21.2279 535.383 21.7934 535.129 22.1663C534.687 22.8145 534.599 22.7586 533.087 20.8614C531.42 18.77 529.881 17.9005 528.521 18.2813C528.011 18.4237 527.283 19.3045 526.388 20.861C524.847 23.5406 523.571 24.8716 521.987 25.4543C521.042 25.8019 520.694 25.7503 519.395 25.0689C516.603 23.6034 516.806 23.6122 516.31 24.9355C515.284 27.6709 513.315 27.7662 512.112 25.1383C511.608 24.0363 511.356 23.7972 510.925 24.0108C510.624 24.1595 509.703 24.6357 508.878 25.0689C507.579 25.7503 507.231 25.8019 506.286 25.4543C504.701 24.8716 503.426 23.5406 501.885 20.861C500.99 19.3045 500.262 18.4237 499.752 18.2813C498.392 17.9005 496.853 18.77 495.186 20.8614C493.673 22.7586 493.586 22.8145 493.143 22.1663C492.482 21.1969 492.565 20.5231 493.547 18.8947C494.513 17.2906 497.623 14.594 499.177 14.0121C500.073 13.6766 500.299 13.7324 501.108 14.491C501.612 14.9633 502.462 16.2162 502.998 17.2749C504.258 19.7625 505.442 20.5716 507.824 20.5734C510.014 20.5751 511.163 19.9185 512.043 18.1626C512.946 16.3614 513.232 13.8557 512.601 13.2724C512.329 13.021 511.861 12.924 511.556 13.0552C510.358 13.5726 508.191 13.8613 507.549 13.589C504.797 12.423 505.709 4.16795 508.59 4.16795C509.272 4.16795 509.329 4.27128 509.12 5.12792C508.991 5.65608 508.872 6.77315 508.857 7.61094C508.827 9.32005 509.691 10.4514 511.028 10.4514C511.987 10.4514 512.414 9.5103 512.414 7.39591C512.414 3.74626 511.126 1.02621 509.399 1.02621C508.657 1.02621 508.565 1.10371 491.585 15.9945C483.221 23.3294 479.772 26.1584 479.189 26.1591C477.688 26.1611 476.597 24.0838 476.245 20.5542C475.984 17.9385 476.412 16.7349 477.605 16.7349C479.03 16.7349 479.964 17.7905 479.958 19.3942C479.956 20.1395 479.84 21.2597 479.701 21.8838C479.501 22.7824 479.545 23.0184 479.915 23.0184C481.704 23.0184 483.281 19.1107 482.639 16.2692C482.108 13.9168 481.49 13.4462 479.297 13.7234C475.673 14.1807 475.935 14.2418 475.822 12.9166C475.507 9.22684 477.785 6.26244 480.936 6.26244C483.11 6.26244 484.754 7.48702 485.856 9.9278C486.72 11.8429 487.963 13.2441 488.795 13.2441C489.803 13.2441 494.054 9.92675 495.003 8.40022C495.87 7.00703 496.046 5.61419 495.441 4.94012C495.154 4.62036 494.667 4.99632 493.303 6.58883C491.494 8.70112 490.085 9.40243 488.661 8.89871C488.315 8.77618 487.389 7.52751 486.604 6.12385C485.18 3.5773 483.556 1.98863 481.904 1.52645C481.329 1.36552 480.564 1.61127 479.229 2.38554C478.201 2.98177 477.29 3.46979 477.205 3.46979C477.12 3.46979 476.776 2.7786 476.44 1.93348C475.43 -0.611329 473.772 -0.551636 472.833 2.06334C472.555 2.8369 472.258 3.46979 472.173 3.46979C472.088 3.46979 471.185 2.98282 470.166 2.38728C468.749 1.55961 468.089 1.35959 467.363 1.53727C466.018 1.86645 463.672 4.29257 462.543 6.52111C460.829 9.90685 458.913 9.925 456.06 6.5829C454.673 4.95827 454.207 4.60046 453.91 4.93174C453.171 5.75487 453.513 7.13235 454.949 9.12142C455.882 10.4134 459.72 13.2441 460.538 13.2441C461.386 13.2441 462.553 11.9305 463.763 9.61328C465.084 7.08453 466.005 6.45129 468.374 6.44326C470.68 6.43593 471.58 6.8852 472.609 8.5587C473.191 9.50506 473.366 10.2689 473.389 11.9486C473.418 14.0592 473.398 14.1143 472.636 14.0309C472.205 13.9838 470.981 13.8452 469.916 13.723L467.979 13.5013L467.333 14.6816C466.562 16.0915 466.465 18.9627 467.128 20.7333C467.592 21.969 468.952 23.2236 469.454 22.878C469.614 22.7677 469.673 21.6744 469.585 20.4484C469.445 18.5023 469.509 18.1256 470.09 17.4774C471.085 16.3691 472.563 16.4801 472.986 17.6949C473.667 19.6448 472.716 24.6123 471.458 25.677C470.229 26.7165 469.469 26.2589 462.926 20.5458C452.928 11.8156 448.324 7.76803 444.76 4.57603C442.951 2.95594 441.165 1.47443 440.79 1.28418C438.717 0.230656 437.17 2.6648 437.118 7.0587C437.094 9.12107 437.199 9.85519 437.556 10.1079C438.349 10.6696 439.114 10.4926 439.958 9.55219C440.646 8.78456 440.739 8.44001 440.59 7.19588C440.494 6.39439 440.319 5.3852 440.202 4.95338C440.02 4.28245 440.105 4.16795 440.786 4.16795C441.225 4.16795 441.809 4.41929 442.084 4.72648C443.552 6.36193 443.976 10.4629 442.884 12.4586C442.321 13.4884 442.123 13.5932 440.74 13.5932C439.901 13.5932 438.76 13.4158 438.202 13.1994C437.367 12.8747 437.102 12.9027 436.693 13.3582C436.258 13.8434 436.247 14.1573 436.603 15.9317C436.91 17.461 437.295 18.2712 438.185 19.2636C439.299 20.505 439.468 20.5748 441.356 20.5734C443.67 20.572 445.114 19.7918 445.953 18.089C447.689 14.5664 448.931 13.4225 450.396 13.9963C451.745 14.5245 454.865 17.3482 455.783 18.8727C456.772 20.5134 456.861 21.1857 456.218 22.1656C455.795 22.81 455.685 22.7381 453.947 20.6834C450.999 17.1981 449.542 17.2383 447.459 20.861C445.872 23.6195 444.571 24.9432 442.949 25.4497C441.91 25.7744 441.584 25.6972 439.923 24.732C438.165 23.7113 438.038 23.6858 437.652 24.274C437.427 24.6168 437.243 25.0755 437.243 25.2933C437.243 26.0334 435.759 27.2681 435.014 27.1487C434.375 27.0464 434.005 26.5905 432.701 24.2967C432.425 23.8094 432.171 23.8649 430.508 24.7742C428.844 25.6847 428.493 25.7607 427.446 25.4385C425.868 24.953 424.235 23.298 423.076 21.0101C421.195 17.2948 419.478 17.211 416.495 20.6889C414.733 22.7426 414.625 22.8121 414.199 22.1663C413.606 21.2663 413.637 20.6125 414.334 19.353C415.685 16.9136 419.244 13.9422 420.815 13.9422C421.934 13.9422 422.928 14.9874 424.253 17.5598C425.434 19.8494 426.571 20.572 428.997 20.5734C430.627 20.5744 431.084 20.4313 431.906 19.6605C433.45 18.2122 434.43 15.2635 433.94 13.5411C433.768 12.9376 433.576 12.8615 432.748 13.0688C428.781 14.0623 428.07 13.9258 427.362 12.0356C426.187 8.90289 427.563 4.16795 429.649 4.16795C430.342 4.16795 430.382 4.25801 430.147 5.30246C429.758 7.02937 429.861 9.00727 430.368 9.56056C431.129 10.3917 432.393 10.5705 432.969 9.92815C434.104 8.66342 433.283 2.68959 431.818 1.54565C430.375 0.419509 430.581 0.283367 420.935 8.76326C416.338 12.8049 408.738 19.4672 404.573 23.1056C400.622 26.5577 399.886 26.8038 398.602 25.1027C397.635 23.8216 397.399 22.5621 397.525 19.353C397.62 16.9628 397.641 16.907 398.503 16.7967C400.46 16.5467 401.631 18.6629 400.901 21.1295C400.01 24.1393 402.487 23.0861 403.523 20.0149C404.016 18.5508 404.048 18.0485 403.743 16.5125C403.235 13.9527 402.614 13.4396 400.367 13.7234C396.657 14.1918 397.005 14.328 396.914 12.3714C396.854 11.0759 397.016 10.2744 397.541 9.26245C398.671 7.08348 399.693 6.43698 402.007 6.43698C404.452 6.43698 405.301 7.04648 406.884 9.93967C408.869 13.5677 409.806 13.8899 412.506 11.8743C416.183 9.12875 417.848 6.19158 416.456 4.90451C416.117 4.59034 415.723 4.90626 414.558 6.42476C413.545 7.74674 412.715 8.46584 411.883 8.74371C409.927 9.39719 409.282 8.99784 407.686 6.1441C406.249 3.57486 404.64 1.97327 403.063 1.54495C402.478 1.38577 401.693 1.63012 400.332 2.39566C399.282 2.98631 398.355 3.46979 398.272 3.46979C398.189 3.46979 397.847 2.7786 397.511 1.93348C396.488 -0.644492 394.684 -0.644492 393.661 1.93348C393.325 2.7786 392.981 3.46979 392.896 3.46979C392.811 3.46979 391.926 2.99678 390.93 2.41905C389.549 1.61791 388.882 1.42102 388.123 1.58998C386.751 1.89578 384.453 4.24579 383.301 6.52111C381.613 9.85379 379.66 9.91453 376.906 6.72009C375.822 5.46234 375.073 4.85739 374.763 4.98969C373.714 5.43826 374.439 7.75372 376.218 9.63771C377.724 11.2323 380.586 13.2441 381.347 13.2441C382.147 13.2441 383.333 11.8872 384.52 9.61328C385.844 7.07824 386.777 6.43698 389.141 6.43698C391.456 6.43698 392.338 6.88625 393.395 8.60548C394.015 9.61432 394.175 10.3083 394.175 11.9954C394.176 14.0487 394.151 14.114 393.393 14.0309C392.963 13.9838 391.739 13.8452 390.673 13.723C388.742 13.502 388.734 13.5048 388.117 14.6355C387.166 16.3788 387.043 17.8261 387.669 19.899C388.665 23.194 391.049 24.1843 390.275 20.9815C389.667 18.4642 390.586 16.7349 392.531 16.7349C393.185 16.7349 393.487 16.9632 393.714 17.6303C394.416 19.6871 393.66 24.1351 392.383 25.4605C391.014 26.8824 390.606 26.6146 379.916 17.2693C374.323 12.3794 368.16 6.95223 366.222 5.20926C364.284 3.46629 362.302 1.78756 361.819 1.47827C359.594 0.0554167 357.93 2.40997 357.876 7.0587C357.852 9.11758 357.958 9.85763 358.314 10.1167C358.885 10.5324 360.182 10.2392 360.811 9.55254C361.319 8.99819 361.425 6.65795 361.011 5.12792C360.777 4.2643 360.828 4.16795 361.514 4.16795C363.776 4.16795 365.167 9.67018 363.62 12.4981C362.981 13.6668 362.969 13.6714 361.037 13.4926C359.97 13.3938 358.784 13.2018 358.401 13.066C356.557 12.4108 356.971 17.2508 358.939 19.352C359.771 20.2397 360.185 20.3961 362.005 20.5071C363.813 20.617 364.262 20.5189 365.204 19.8086C365.807 19.3537 366.655 18.2551 367.087 17.3667C368.63 14.1995 369.704 13.3422 371.227 14.0609C373.805 15.2778 377.42 19.2752 377.42 20.9096C377.42 21.2279 377.212 21.7934 376.958 22.1663C376.515 22.8145 376.428 22.7586 374.915 20.8614C373.248 18.77 371.709 17.9005 370.349 18.2813C369.839 18.4237 369.111 19.3045 368.216 20.861C366.675 23.5406 365.4 24.8716 363.815 25.4543C362.87 25.8019 362.522 25.7503 361.223 25.0689C358.431 23.6034 358.634 23.6122 358.138 24.9355C357.113 27.6709 355.143 27.7662 353.94 25.1383C353.436 24.0363 353.184 23.7972 352.753 24.0108C352.452 24.1595 351.531 24.6357 350.706 25.0689C349.407 25.7503 349.059 25.8019 348.114 25.4543C346.529 24.8716 345.254 23.5406 343.713 20.861C342.818 19.3045 342.09 18.4237 341.58 18.2813C340.22 17.9005 338.681 18.77 337.014 20.8614C335.502 22.7586 335.414 22.8145 334.972 22.1663C334.311 21.1969 334.394 20.5231 335.375 18.8947C336.342 17.2906 339.451 14.594 341.005 14.0121C341.901 13.6766 342.127 13.7324 342.936 14.491C343.44 14.9633 344.291 16.2162 344.827 17.2749C346.086 19.7625 347.271 20.5716 349.652 20.5734C351.842 20.5751 352.991 19.9185 353.871 18.1626C354.774 16.3614 355.06 13.8557 354.429 13.2724C354.158 13.021 353.689 12.924 353.385 13.0552C352.187 13.5726 350.02 13.8613 349.377 13.589C346.626 12.423 347.537 4.16795 350.418 4.16795C351.1 4.16795 351.157 4.27128 350.948 5.12792C350.819 5.65608 350.701 6.77315 350.686 7.61094C350.655 9.32005 351.52 10.4514 352.856 10.4514C353.815 10.4514 354.242 9.5103 354.242 7.39591C354.242 3.74626 352.955 1.02621 351.228 1.02621C350.485 1.02621 350.393 1.10371 333.413 15.9945C325.05 23.3294 321.6 26.1584 321.018 26.1591C319.517 26.1611 318.425 24.0838 318.073 20.5542C317.812 17.9385 318.241 16.7349 319.433 16.7349C320.858 16.7349 321.792 17.7905 321.786 19.3942C321.784 20.1395 321.668 21.2597 321.529 21.8838C321.329 22.7824 321.374 23.0184 321.743 23.0184C323.532 23.0184 325.109 19.1107 324.467 16.2692C323.936 13.9168 323.318 13.4462 321.125 13.7234C317.501 14.1807 317.763 14.2418 317.65 12.9166C317.335 9.22684 319.613 6.26244 322.764 6.26244C324.938 6.26244 326.582 7.48702 327.684 9.9278C328.549 11.8429 329.791 13.2441 330.624 13.2441C331.631 13.2441 335.882 9.92675 336.832 8.40022C337.698 7.00703 337.874 5.61419 337.27 4.94012C336.983 4.62036 336.495 4.99632 335.131 6.58883C333.322 8.70112 331.913 9.40243 330.489 8.89871C330.143 8.77618 329.217 7.52751 328.432 6.12385C327.008 3.5773 325.384 1.98863 323.732 1.52645C323.157 1.36552 322.392 1.61127 321.057 2.38554C320.029 2.98177 319.118 3.46979 319.033 3.46979C318.948 3.46979 318.604 2.7786 318.269 1.93348C317.259 -0.611329 315.6 -0.551636 314.661 2.06334C314.383 2.8369 314.086 3.46979 314.002 3.46979C313.916 3.46979 313.013 2.98282 311.994 2.38728C310.577 1.55961 309.917 1.35959 309.192 1.53727C307.846 1.86645 305.5 4.29257 304.372 6.52111C302.657 9.90685 300.742 9.925 297.888 6.5829C296.501 4.95827 296.035 4.60046 295.738 4.93174C294.999 5.75487 295.341 7.13235 296.777 9.12142C297.71 10.4134 301.548 13.2441 302.367 13.2441C303.215 13.2441 304.381 11.9305 305.591 9.61328C306.912 7.08453 307.833 6.45129 310.202 6.44326C312.508 6.43593 313.408 6.8852 314.437 8.5587C315.019 9.50506 315.195 10.2689 315.218 11.9486C315.246 14.0592 315.227 14.1143 314.464 14.0309C314.033 13.9838 312.809 13.8452 311.744 13.723L309.807 13.5013L309.161 14.6816C308.39 16.0915 308.293 18.9627 308.957 20.7333C309.42 21.969 310.781 23.2236 311.283 22.878C311.443 22.7677 311.501 21.6744 311.413 20.4484C311.273 18.5023 311.337 18.1256 311.919 17.4774C312.913 16.3691 314.391 16.4801 314.815 17.6949C315.496 19.6448 314.544 24.6123 313.286 25.677C312.058 26.7165 311.297 26.2589 304.755 20.5458C294.757 11.8156 290.153 7.76803 286.588 4.57603C284.78 2.95594 282.993 1.47443 282.618 1.28418C280.546 0.230656 278.998 2.6648 278.947 7.0587C278.922 9.12107 279.028 9.85519 279.384 10.1079C280.177 10.6696 280.942 10.4926 281.786 9.55219C282.475 8.78456 282.567 8.44001 282.418 7.19588C282.322 6.39439 282.147 5.38555 282.03 4.95338C281.848 4.28245 281.933 4.16795 282.614 4.16795C283.053 4.16795 283.637 4.41929 283.913 4.72648C285.38 6.36193 285.804 10.4629 284.712 12.4586C284.149 13.4884 283.951 13.5932 282.568 13.5932C281.73 13.5932 280.588 13.4158 280.031 13.1994C279.195 12.8747 278.93 12.9027 278.521 13.3582C278.086 13.8434 278.075 14.1573 278.431 15.9317C278.739 17.461 279.123 18.2712 280.014 19.2636C281.127 20.505 281.296 20.5748 283.184 20.5734C285.498 20.572 286.942 19.7918 287.781 18.089C289.517 14.5664 290.759 13.4225 292.225 13.9963C293.573 14.5245 296.693 17.3482 297.612 18.8727C298.6 20.5134 298.689 21.1857 298.046 22.1656C297.623 22.81 297.514 22.7381 295.775 20.6834C292.827 17.1981 291.37 17.2383 289.287 20.861C287.7 23.6195 286.399 24.9432 284.778 25.4497C283.738 25.7744 283.412 25.6972 281.751 24.732C279.994 23.7113 279.866 23.6858 279.48 24.274C279.255 24.6168 279.071 25.0755 279.071 25.2933C279.071 26.0334 277.588 27.2681 276.842 27.1487C276.203 27.0464 275.833 26.5905 274.53 24.2967C274.253 23.8094 273.999 23.8649 272.337 24.7742C270.672 25.6847 270.321 25.7607 269.274 25.4385C267.696 24.953 266.063 23.298 264.905 21.0101C263.024 17.2948 261.306 17.211 258.323 20.6889C256.561 22.7426 256.453 22.8121 256.027 22.1663C255.434 21.2663 255.465 20.6125 256.163 19.353C257.513 16.9136 261.072 13.9422 262.643 13.9422C263.762 13.9422 264.756 14.9874 266.082 17.5598C267.262 19.8494 268.399 20.572 270.825 20.5734C272.455 20.5744 272.912 20.4313 273.734 19.6605C275.278 18.2122 276.258 15.2635 275.768 13.5411C275.596 12.9376 275.404 12.8615 274.576 13.0688C270.61 14.0623 269.899 13.9258 269.19 12.0356C268.016 8.90289 269.392 4.16795 271.477 4.16795C272.171 4.16795 272.21 4.25801 271.975 5.30246C271.586 7.02937 271.689 9.00727 272.196 9.56056C272.958 10.3917 274.222 10.5705 274.798 9.92815C275.933 8.66342 275.112 2.68959 273.646 1.54565C272.203 0.419509 272.409 0.283367 262.763 8.76326C258.167 12.8049 250.566 19.4672 246.401 23.1056C242.45 26.5577 241.714 26.8038 240.43 25.1027C239.463 23.8216 239.227 22.5621 239.354 19.353C239.448 16.9628 239.469 16.907 240.332 16.7967C242.289 16.5467 243.46 18.6629 242.73 21.1295C241.838 24.1393 244.315 23.0861 245.351 20.0149C245.845 18.5508 245.876 18.0485 245.571 16.5125C245.063 13.9527 244.442 13.4396 242.196 13.7234C238.485 14.1918 238.833 14.328 238.743 12.3714C238.683 11.0759 238.844 10.2744 239.369 9.26245C240.5 7.08348 241.521 6.43698 243.835 6.43698C246.281 6.43698 247.129 7.04648 248.712 9.93967C250.697 13.5677 251.634 13.8899 254.334 11.8743C258.011 9.12875 259.676 6.19158 258.284 4.90451C257.945 4.59034 257.551 4.90626 256.387 6.42476C255.373 7.74674 254.544 8.46584 253.711 8.74371C251.755 9.39719 251.11 8.99784 249.514 6.1441C248.078 3.57486 246.468 1.97327 244.892 1.54495C244.306 1.38577 243.521 1.63012 242.16 2.39566C241.11 2.98631 240.183 3.46979 240.1 3.46979C240.017 3.46979 239.675 2.7786 239.339 1.93348C238.316 -0.644492 236.512 -0.644492 235.489 1.93348C235.153 2.7786 234.809 3.46979 234.724 3.46979C234.639 3.46979 233.754 2.99678 232.758 2.41905C231.377 1.61791 230.71 1.42102 229.952 1.58998C228.579 1.89578 226.281 4.24579 225.129 6.52111C223.441 9.85379 221.489 9.91453 218.735 6.72009C217.65 5.46234 216.901 4.85739 216.592 4.98969C215.543 5.43826 216.267 7.75372 218.047 9.63771C219.553 11.2323 222.414 13.2441 223.176 13.2441C223.976 13.2441 225.161 11.8872 226.349 9.61328C227.673 7.07824 228.605 6.43698 230.969 6.43698C233.285 6.43698 234.166 6.88625 235.223 8.60548C235.843 9.61432 236.003 10.3083 236.004 11.9954C236.005 14.0487 235.98 14.114 235.222 14.0309C234.791 13.9838 233.567 13.8452 232.501 13.723C230.57 13.502 230.563 13.5048 229.946 14.6355C228.994 16.3788 228.871 17.8261 229.497 19.899C230.493 23.194 232.877 24.1843 232.103 20.9815C231.495 18.4642 232.414 16.7349 234.359 16.7349C235.013 16.7349 235.315 16.9632 235.543 17.6303C236.244 19.6871 235.488 24.1351 234.211 25.4605C232.842 26.8824 232.435 26.6146 221.745 17.2693C216.151 12.3794 209.988 6.95223 208.05 5.20926C206.112 3.46629 204.13 1.78756 203.647 1.47827C201.422 0.0554167 199.759 2.40997 199.704 7.0587C199.68 9.11758 199.786 9.85763 200.142 10.1167C200.713 10.5324 202.01 10.2392 202.64 9.55254C203.147 8.99819 203.253 6.65795 202.839 5.12792C202.606 4.2643 202.656 4.16795 203.342 4.16795C205.604 4.16795 206.995 9.67018 205.448 12.4981C204.809 13.6668 204.798 13.6714 202.866 13.4926C201.798 13.3938 200.612 13.2018 200.229 13.066C198.385 12.4108 198.8 17.2508 200.768 19.352C201.599 20.2397 202.014 20.3961 203.833 20.5071C205.641 20.617 206.09 20.5189 207.033 19.8086C207.636 19.3537 208.483 18.2551 208.916 17.3667C210.459 14.1995 211.532 13.3422 213.055 14.0609C215.633 15.2778 219.248 19.2752 219.248 20.9096C219.248 21.2279 219.04 21.7934 218.786 22.1663C218.344 22.8145 218.256 22.7586 216.743 20.8614C215.077 18.77 213.538 17.9005 212.177 18.2813C211.668 18.4237 210.939 19.3045 210.045 20.861C208.503 23.5406 207.228 24.8716 205.644 25.4543C204.699 25.8019 204.35 25.7503 203.052 25.0689C200.259 23.6034 200.462 23.6122 199.966 24.9355C198.941 27.6709 196.972 27.7662 195.769 25.1383C195.264 24.0363 195.013 23.7972 194.582 24.0108C194.281 24.1595 193.359 24.6357 192.534 25.0689C191.236 25.7503 190.887 25.8019 189.942 25.4543C188.358 24.8716 187.083 23.5406 185.541 20.861C184.646 19.3045 183.918 18.4237 183.409 18.2813C182.048 17.9005 180.509 18.77 178.842 20.8614C177.33 22.7586 177.242 22.8145 176.8 22.1663C176.139 21.1969 176.222 20.5231 177.203 18.8947C178.17 17.2906 181.279 14.594 182.834 14.0121C183.73 13.6766 183.956 13.7324 184.764 14.491C185.268 14.9633 186.119 16.2162 186.655 17.2749C187.915 19.7625 189.099 20.5716 191.48 20.5734C193.67 20.5751 194.82 19.9185 195.7 18.1626C196.602 16.3614 196.888 13.8557 196.257 13.2724C195.986 13.021 195.517 12.924 195.213 13.0552C194.015 13.5726 191.848 13.8613 191.206 13.589C188.454 12.423 189.365 4.16795 192.246 4.16795C192.929 4.16795 192.986 4.27128 192.776 5.12792C192.647 5.65574 192.529 6.77315 192.514 7.61094C192.484 9.32005 193.348 10.4514 194.685 10.4514C195.643 10.4514 196.07 9.5103 196.07 7.39591C196.07 3.74626 194.783 1.02621 193.056 1.02621C192.313 1.02621 192.221 1.10371 175.242 15.9945C166.878 23.3294 163.428 26.1584 162.846 26.1591C161.345 26.1611 160.254 24.0838 159.901 20.5542C159.64 17.9385 160.069 16.7349 161.261 16.7349C162.686 16.7349 163.62 17.7905 163.615 19.3942C163.612 20.1395 163.496 21.2597 163.358 21.8838C163.157 22.7824 163.202 23.0184 163.571 23.0184C165.361 23.0184 166.938 19.1107 166.295 16.2692C165.764 13.9168 165.146 13.4462 162.953 13.7234C159.329 14.1807 159.592 14.2418 159.479 12.9166C159.163 9.22684 161.442 6.26244 164.593 6.26244C166.767 6.26244 168.41 7.48702 169.512 9.9278C170.377 11.8429 171.619 13.2441 172.452 13.2441C173.459 13.2441 177.711 9.92675 178.66 8.40022C179.526 7.00703 179.703 5.61419 179.098 4.94012C178.811 4.62036 178.323 4.99632 176.959 6.58883C175.15 8.70112 173.741 9.40243 172.318 8.89871C171.971 8.77618 171.046 7.52751 170.261 6.12385C168.837 3.5773 167.212 1.98863 165.56 1.52645C164.985 1.36552 164.22 1.61127 162.886 2.38554C161.858 2.98177 160.947 3.46979 160.862 3.46979C160.776 3.46979 160.432 2.7786 160.097 1.93348C159.087 -0.611329 157.428 -0.551636 156.489 2.06334C156.212 2.8369 155.915 3.46979 155.83 3.46979C155.745 3.46979 154.841 2.98282 153.822 2.38728C152.406 1.55961 151.746 1.35959 151.02 1.53727C149.675 1.86645 147.328 4.29257 146.2 6.52111C144.486 9.90685 142.57 9.925 139.717 6.5829C138.329 4.95827 137.863 4.60046 137.566 4.93174C136.828 5.75487 137.169 7.13235 138.606 9.12142C139.539 10.4134 143.377 13.2441 144.195 13.2441C145.043 13.2441 146.21 11.9305 147.419 9.61328C148.74 7.08453 149.661 6.45129 152.03 6.44326C154.337 6.43593 155.236 6.8852 156.265 8.5587C156.847 9.50506 157.023 10.2689 157.046 11.9486C157.075 14.0592 157.055 14.1143 156.292 14.0309C155.862 13.9838 154.638 13.8452 153.572 13.723L151.635 13.5013L150.989 14.6816C150.218 16.0915 150.121 18.9627 150.785 20.7333C151.248 21.969 152.609 23.2236 153.111 22.878C153.271 22.7677 153.33 21.6744 153.241 20.4484C153.101 18.5023 153.165 18.1256 153.747 17.4774C154.741 16.3691 156.219 16.4801 156.643 17.6949C157.324 19.6448 156.373 24.6123 155.114 25.677C153.886 26.7165 153.125 26.2589 146.583 20.5458C136.585 11.8156 131.981 7.76803 128.417 4.57603C126.608 2.95594 124.821 1.47443 124.446 1.28418C122.374 0.230656 120.826 2.6648 120.775 7.0587C120.75 9.12107 120.856 9.85519 121.213 10.1079C122.006 10.6696 122.77 10.4926 123.614 9.55219C124.303 8.78456 124.395 8.44001 124.246 7.19588C124.15 6.39439 123.976 5.38555 123.858 4.95338C123.676 4.28245 123.762 4.16795 124.443 4.16795C124.881 4.16795 125.465 4.41929 125.741 4.72648C127.208 6.36193 127.633 10.4629 126.541 12.4586C125.977 13.4884 125.779 13.5932 124.396 13.5932C123.558 13.5932 122.416 13.4158 121.859 13.1994C121.024 12.8747 120.758 12.9027 120.35 13.3582C119.915 13.8434 119.904 14.1573 120.26 15.9317C120.567 17.461 120.952 18.2712 121.842 19.2636C122.956 20.505 123.125 20.5748 125.013 20.5734C127.327 20.572 128.77 19.7918 129.609 18.089C131.346 14.5664 132.588 13.4225 134.053 13.9963C135.402 14.5245 138.521 17.3482 139.44 18.8727C140.429 20.5134 140.517 21.1857 139.875 22.1656C139.452 22.81 139.342 22.7381 137.604 20.6834C134.656 17.1981 133.199 17.2383 131.115 20.861C129.529 23.6195 128.228 24.9432 126.606 25.4497C125.566 25.7744 125.241 25.6972 123.579 24.732C121.822 23.7113 121.694 23.6858 121.309 24.274C121.083 24.6168 120.9 25.0755 120.9 25.2933C120.9 26.0334 119.416 27.2681 118.67 27.1487C118.031 27.0464 117.662 26.5905 116.358 24.2967C116.081 23.8094 115.827 23.8649 114.165 24.7742C112.501 25.6847 112.149 25.7607 111.103 25.4385C109.525 24.953 107.892 23.298 106.733 21.0101C104.852 17.2948 103.135 17.211 100.151 20.6889C98.3897 22.7426 98.2816 22.8121 97.8557 22.1663C97.2621 21.2663 97.2934 20.6125 97.991 19.353C99.3412 16.9136 102.9 13.9422 104.472 13.9422C105.591 13.9422 106.584 14.9874 107.91 17.5598C109.091 19.8494 110.228 20.572 112.654 20.5734C114.284 20.5744 114.74 20.4313 115.562 19.6605C117.106 18.2122 118.087 15.2635 117.596 13.5411C117.424 12.9376 117.232 12.8615 116.405 13.0688C112.438 14.0623 111.727 13.9258 111.018 12.0356C109.844 8.90289 111.22 4.16795 113.305 4.16795C113.999 4.16795 114.038 4.25801 113.803 5.30246C113.415 7.02937 113.517 9.00727 114.024 9.56056C114.786 10.3917 116.05 10.5705 116.626 9.92815C117.761 8.66342 116.94 2.68959 115.474 1.54565C114.032 0.419509 114.237 0.283367 104.592 8.76326C99.9949 12.8049 92.3942 19.4672 88.2294 23.1056C84.2783 26.5577 83.5425 26.8038 82.2584 25.1027C81.2912 23.8216 81.0553 22.5621 81.1819 19.353C81.2761 16.9628 81.2978 16.907 82.16 16.7967C84.117 16.5467 85.2881 18.6629 84.558 21.1295C83.6666 24.1393 86.1438 23.0861 87.1792 20.0149C87.6729 18.5508 87.7045 18.0485 87.3994 16.5125C86.8914 13.9527 86.2706 13.4396 84.0239 13.7234C80.3133 14.1918 80.6616 14.328 80.5711 12.3714C80.511 11.0759 80.6726 10.2744 81.1975 9.26245C82.3279 7.08348 83.3496 6.43698 85.6633 6.43698C88.1088 6.43698 88.9576 7.04648 90.5406 9.93967C92.5257 13.5677 93.4626 13.8899 96.1621 11.8743C99.8395 9.12875 101.504 6.19158 100.112 4.90451C99.7731 4.59034 99.3791 4.90626 98.2149 6.42476C97.2017 7.74674 96.372 8.46584 95.5398 8.74371C93.5835 9.39719 92.9386 8.99784 91.3428 6.1441C89.906 3.57486 88.2961 1.97327 86.7201 1.54495C86.1344 1.38577 85.3491 1.63012 83.9886 2.39566C82.9384 2.98631 82.0112 3.46979 81.9282 3.46979C81.8452 3.46979 81.5032 2.7786 81.1678 1.93348C80.1445 -0.644492 78.3404 -0.644492 77.3171 1.93348C76.9817 2.7786 76.6378 3.46979 76.5526 3.46979C76.4674 3.46979 75.5826 2.99678 74.5863 2.41905C73.2053 1.61791 72.5385 1.42102 71.7799 1.58998C70.4077 1.89578 68.1094 4.24579 66.9574 6.52111C65.2698 9.85379 63.3169 9.91453 60.5628 6.72009C59.4785 5.46234 58.7293 4.85739 58.4199 4.98969C57.3709 5.43826 58.0957 7.75372 59.875 9.63771C61.381 11.2323 64.2421 13.2441 65.0039 13.2441C65.8038 13.2441 66.9893 11.8872 68.177 9.61328C69.501 7.07824 70.4337 6.43698 72.7972 6.43698C75.1131 6.43698 75.9945 6.88625 77.0515 8.60548C77.6717 9.61432 77.8314 10.3083 77.8321 11.9954C77.833 14.0487 77.808 14.114 77.05 14.0309C76.6193 13.9838 75.3953 13.8452 74.3297 13.723C72.3988 13.502 72.391 13.5048 71.7739 14.6355C70.8224 16.3788 70.6993 17.8261 71.3257 19.899C72.3214 23.194 74.7056 24.1843 73.9316 20.9815C73.3237 18.4642 74.2423 16.7349 76.1877 16.7349C76.8417 16.7349 77.1433 16.9632 77.371 17.6303C78.0726 19.6871 77.3162 24.1351 76.0396 25.4605C74.6702 26.8824 74.263 26.6146 63.5728 17.2693C57.9792 12.3794 51.8167 6.95223 49.8783 5.20926C47.9401 3.46629 45.9587 1.78756 45.4758 1.47827C43.2507 0.0554167 41.5869 2.40997 41.5324 7.0587C41.5083 9.11758 41.6142 9.85763 41.9703 10.1167C42.5416 10.5324 43.8386 10.2392 44.4679 9.55254C44.9753 8.99819 45.0811 6.65795 44.6674 5.12792C44.434 4.2643 44.4848 4.16795 45.1704 4.16795C47.4324 4.16795 48.8237 9.67018 47.2767 12.4981C46.6375 13.6668 46.6259 13.6714 44.694 13.4926C43.6266 13.3938 42.4401 13.2018 42.0574 13.066C40.2135 12.4108 40.6279 17.2508 42.5958 19.352C43.4274 20.2397 43.8421 20.3961 45.6612 20.5071C47.4694 20.617 47.9185 20.5189 48.861 19.8086C49.4639 19.3537 50.3111 18.2551 50.744 17.3667C52.2869 14.1995 53.3602 13.3422 54.8831 14.0609C57.4614 15.2778 61.0762 19.2752 61.0762 20.9096C61.0762 21.2279 60.8682 21.7934 60.6142 22.1663C60.172 22.8145 60.0843 22.7586 58.5718 20.8614C56.9049 18.77 55.366 17.9005 54.0055 18.2813C53.4959 18.4237 52.7676 19.3045 51.8728 20.861C50.3315 23.5406 49.0564 24.8716 47.4719 25.4543C46.5269 25.8019 46.1786 25.7503 44.88 25.0689C42.0875 23.6034 42.2907 23.6122 41.7946 24.9355C40.7691 27.6709 38.8 27.7662 37.5969 25.1383C37.0927 24.0363 36.8409 23.7972 36.4099 24.0108C36.1089 24.1595 35.1877 24.6357 34.3624 25.0689C33.0638 25.7503 32.7155 25.8019 31.7706 25.4543C30.1861 24.8716 28.911 23.5406 27.3697 20.861C26.4748 19.3045 25.7466 18.4237 25.237 18.2813C23.8764 17.9005 22.3376 18.77 20.6707 20.8614C19.1582 22.7586 19.0705 22.8145 18.6282 22.1663C17.9674 21.1969 18.0504 20.5231 19.0317 18.8947C19.9982 17.2906 23.1078 14.594 24.6619 14.0121C25.558 13.6766 25.7839 13.7324 26.5926 14.491C27.0965 14.9633 27.9472 16.2162 28.4831 17.2749C29.7429 19.7625 30.9271 20.5716 33.3088 20.5734C35.4987 20.5751 36.6479 19.9185 37.528 18.1626C38.4307 16.3614 38.7164 13.8557 38.0856 13.2724C37.8143 13.021 37.3457 12.924 37.0413 13.0552C35.8433 13.5726 33.6762 13.8613 33.0341 13.589C30.2822 12.423 31.1937 4.16795 34.0746 4.16795C34.7571 4.16795 34.8141 4.27128 34.6045 5.12792C34.4755 5.65608 34.3574 6.77315 34.3424 7.61094C34.312 9.32005 35.1761 10.4514 36.5129 10.4514C37.4717 10.4514 37.8986 9.5103 37.8986 7.39591C37.8986 3.74626 36.6113 1.02621 34.8842 1.02621C34.1416 1.02621 34.0495 1.10371 17.07 15.9945C8.70633 23.3294 5.25663 26.1584 4.67437 26.1591C3.17314 26.1611 2.08192 24.0838 1.72955 20.5542C1.46865 17.9385 1.89712 16.7349 3.08952 16.7349C4.51463 16.7349 5.44862 17.7905 5.44299 19.3942C5.44048 20.1395 5.32459 21.2597 5.18584 21.8838C4.9857 22.7824 5.03017 23.0184 5.39976 23.0184C7.18883 23.0184 8.76584 19.1107 8.12376 16.2692C7.59256 13.9168 6.97459 13.4462 4.78148 13.7234C1.15763 14.1807 1.4201 14.2418 1.30703 12.9166C0.991627 9.22684 3.26993 6.26244 6.42083 6.26244C8.59483 6.26244 10.2386 7.48702 11.3404 9.9278C12.2052 11.8429 13.4474 13.2441 14.2802 13.2441C15.2875 13.2441 19.5391 9.92675 20.4884 8.40022C21.3547 7.00703 21.5311 5.61419 20.9263 4.94012C20.6394 4.62036 20.1514 4.99632 18.7877 6.58883C16.9786 8.70112 15.5694 9.40243 14.1459 8.89871C13.7995 8.77618 12.8739 7.52751 12.089 6.12385C10.6648 3.5773 9.04053 1.98863 7.38865 1.52645C6.8136 1.36552 6.04842 1.61127 4.71383 2.38554C3.68587 2.98177 2.76722 3.46979 2.67263 3.46979C2.57804 3.46979 2.27329 2.8369 1.99578 2.06334C1.50623 0.699822 0.601366 -0.225943 0.197636 0.224023Z" fill="#990711"/>
</svg>
