<svg width="2021" height="85" viewBox="0 0 2021 85" fill="none" xmlns="http://www.w3.org/2000/svg">
<path fill-rule="evenodd" clip-rule="evenodd" d="M0.631 0.634733C0.284 0.977938 0 20.1005 0 43.1299V85H1010.5H2021V43.1299C2021 20.1005 2020.72 0.977938 2020.37 0.634733C2019.08 -0.640172 2016.19 1.98283 2014.63 5.84612C2013.74 8.03788 2012.79 9.83106 2012.52 9.83106C2012.25 9.83106 2009.37 8.45131 2006.11 6.76397C2001.59 4.4189 1999.48 3.85216 1997.17 4.3556C1992.87 5.28828 1985.38 12.1623 1981.78 18.4765C1976.3 28.0694 1970.19 28.1208 1961.08 18.6515C1956.65 14.0484 1955.16 13.0346 1954.21 13.9733C1951.85 16.3055 1952.94 20.2083 1957.53 25.844C1960.51 29.5046 1972.76 37.5249 1975.38 37.5249C1978.08 37.5249 1981.81 33.803 1985.67 27.2376C1989.89 20.0728 1992.83 18.2787 2000.39 18.2559C2007.76 18.2351 2010.63 19.5081 2013.91 24.2496C2015.77 26.931 2016.33 29.0951 2016.41 33.8545C2016.5 39.8343 2016.43 39.9906 2014 39.7542C2012.62 39.6207 2008.72 39.2281 2005.31 38.8819L1999.13 38.2538L1997.07 41.5978C1994.61 45.5927 1994.3 53.7277 1996.42 58.7443C1997.9 62.2456 2002.24 65.8003 2003.84 64.8211C2004.35 64.5086 2004.54 61.4108 2004.26 57.9372C2003.81 52.4232 2004.02 51.356 2005.87 49.5193C2009.05 46.379 2013.77 46.6935 2015.12 50.1355C2017.29 55.6604 2014.26 69.7348 2010.24 72.7514C2006.32 75.6969 2003.89 74.4002 1983 58.2132C1951.08 33.4776 1936.38 22.0094 1925 12.9654C1919.22 8.37515 1913.52 4.17756 1912.32 3.63852C1905.71 0.653525 1900.77 7.55028 1900.6 19.9996C1900.52 25.843 1900.86 27.923 1902 28.6391C1904.53 30.2305 1906.97 29.7291 1909.67 27.0645C1911.87 24.8896 1912.16 23.9134 1911.69 20.3883C1911.38 18.1174 1910.82 15.2581 1910.45 14.0346C1909.87 12.1336 1910.14 11.8092 1912.31 11.8092C1913.71 11.8092 1915.58 12.5213 1916.46 13.3917C1921.14 18.0255 1922.5 29.645 1919.01 35.2995C1917.21 38.2172 1916.58 38.5139 1912.16 38.5139C1909.49 38.5139 1905.84 38.0115 1904.06 37.3983C1901.4 36.4785 1900.55 36.5576 1899.24 37.8483C1897.85 39.2231 1897.82 40.1123 1898.96 45.1397C1899.94 49.4728 1901.17 51.7684 1904.01 54.5803C1907.57 58.0974 1908.1 58.2952 1914.13 58.2913C1921.52 58.2873 1926.13 56.0768 1928.81 51.2521C1934.35 41.2715 1938.32 38.0303 1942.99 39.6563C1947.3 41.1528 1957.26 49.1533 1960.19 53.4726C1963.35 58.1212 1963.63 60.0261 1961.58 62.8024C1960.23 64.6282 1959.88 64.4245 1954.33 58.6028C1944.92 48.728 1940.27 48.8418 1933.62 59.1063C1928.55 66.9219 1924.4 70.6724 1919.22 72.1075C1915.9 73.0274 1914.86 72.8088 1909.56 70.074C1903.95 67.182 1903.54 67.1098 1902.31 68.7764C1901.59 69.7476 1901 71.0473 1901 71.6644C1901 73.7613 1896.26 77.2596 1893.88 76.9213C1891.84 76.6315 1890.66 75.3398 1886.5 68.8407C1885.62 67.4599 1884.81 67.6172 1879.5 70.1937C1874.19 72.7732 1873.06 72.9888 1869.72 72.0759C1864.68 70.7001 1859.47 66.0109 1855.77 59.5286C1849.76 49.002 1844.28 48.7646 1834.76 58.6187C1829.13 64.4373 1828.79 64.6342 1827.43 62.8044C1825.53 60.2546 1825.63 58.4021 1827.86 54.8335C1832.17 47.9219 1843.53 39.503 1848.55 39.503C1852.12 39.503 1855.29 42.4643 1859.53 49.7527C1863.3 56.24 1866.93 58.2873 1874.67 58.2913C1879.88 58.2943 1881.33 57.8887 1883.96 55.7049C1888.89 51.6013 1892.02 43.2466 1890.45 38.3666C1889.9 36.6565 1889.29 36.4409 1886.65 37.0284C1873.98 39.8433 1871.71 39.4565 1869.45 34.1007C1865.7 25.2249 1870.1 11.8092 1876.75 11.8092C1878.97 11.8092 1879.09 12.0644 1878.34 15.0237C1877.1 19.9166 1877.43 25.5206 1879.05 27.0883C1881.48 29.4432 1885.52 29.9496 1887.36 28.1298C1890.98 24.5464 1888.36 7.6205 1883.68 4.37933C1879.07 1.18861 1879.73 0.802874 1848.93 24.8292C1834.26 36.2806 1809.99 55.1569 1796.69 65.466C1784.08 75.2468 1781.73 75.9441 1777.63 71.1244C1774.54 67.4945 1773.79 63.926 1774.19 54.8335C1774.49 48.0614 1774.56 47.9031 1777.31 47.5906C1783.56 46.8824 1787.3 52.8781 1784.97 59.8669C1782.12 68.3946 1790.03 65.4106 1793.34 56.7088C1794.92 52.5606 1795.02 51.1374 1794.04 46.7855C1792.42 39.5327 1790.44 38.0788 1783.27 38.8829C1771.42 40.2102 1772.53 40.5959 1772.24 35.0522C1772.05 31.3818 1772.57 29.1109 1774.24 26.2436C1777.85 20.0699 1781.11 18.2381 1788.5 18.2381C1796.31 18.2381 1799.02 19.965 1804.07 28.1624C1810.41 38.4417 1813.4 39.3546 1822.02 33.6438C1833.76 25.8648 1839.08 17.5428 1834.63 13.8961C1833.55 13.006 1832.29 13.9011 1828.57 18.2035C1825.34 21.9491 1822.69 23.9866 1820.03 24.7739C1813.79 26.6254 1811.73 25.4939 1806.63 17.4083C1802.05 10.1288 1796.91 5.59094 1791.87 4.37735C1790 3.92634 1787.5 4.61869 1783.15 6.78771C1779.8 8.4612 1776.84 9.83106 1776.57 9.83106C1776.31 9.83106 1775.22 7.87271 1774.15 5.47818C1770.88 -1.82606 1765.12 -1.82606 1761.85 5.47818C1760.78 7.87271 1759.68 9.83106 1759.41 9.83106C1759.14 9.83106 1756.32 8.49088 1753.13 6.85397C1748.72 4.58407 1746.6 4.02624 1744.17 4.50494C1739.79 5.37136 1732.45 12.0297 1728.78 18.4765C1723.39 27.9191 1717.15 28.0912 1708.36 19.0402C1704.9 15.4766 1702.51 13.7626 1701.52 14.1374C1698.17 15.4084 1700.48 21.9689 1706.17 27.3068C1710.97 31.8249 1720.11 37.5249 1722.54 37.5249C1725.09 37.5249 1728.88 33.6804 1732.67 27.2376C1736.9 20.055 1739.88 18.2381 1747.42 18.2381C1754.82 18.2381 1757.63 19.511 1761.01 24.3822C1762.98 27.2406 1763.49 29.2068 1763.5 33.987C1763.5 39.8047 1763.42 39.9896 1761 39.7542C1759.62 39.6207 1755.72 39.2281 1752.31 38.8819C1746.15 38.2558 1746.12 38.2637 1744.16 41.4673C1741.12 46.4067 1740.72 50.5073 1742.72 56.3804C1745.9 65.7162 1753.51 68.5222 1751.04 59.4475C1749.1 52.3154 1752.04 47.4155 1758.25 47.4155C1760.33 47.4155 1761.3 48.0624 1762.03 49.9525C1764.27 55.7801 1761.85 68.3827 1757.77 72.1382C1753.4 76.1667 1752.1 75.408 1717.97 48.9298C1700.11 35.075 1680.44 19.698 1674.25 14.7596C1668.06 9.82117 1661.73 5.06475 1660.19 4.18844C1653.09 0.157014 1647.78 6.82826 1647.6 19.9996C1647.53 25.8331 1647.86 27.93 1649 28.6638C1650.82 29.8418 1654.96 29.011 1656.97 27.0655C1658.59 25.4949 1658.93 18.8642 1657.61 14.5291C1656.87 12.0822 1657.03 11.8092 1659.22 11.8092C1666.44 11.8092 1670.88 27.3988 1665.94 35.4112C1663.9 38.7226 1663.86 38.7355 1657.7 38.2291C1654.29 37.9492 1650.5 37.4052 1649.28 37.0205C1643.39 35.164 1644.71 48.8774 1651 54.8306C1653.65 57.3457 1654.98 57.7888 1660.78 58.1034C1666.56 58.4149 1667.99 58.137 1671 56.1242C1672.93 54.8355 1675.63 51.7229 1677.01 49.2057C1681.94 40.232 1685.36 37.8028 1690.23 39.8393C1698.46 43.2872 1710 54.613 1710 59.2438C1710 60.1458 1709.34 61.7481 1708.53 62.8044C1707.11 64.6411 1706.83 64.4828 1702 59.1073C1696.68 53.1818 1691.77 50.718 1687.43 51.7971C1685.8 52.2006 1683.47 54.696 1680.62 59.1063C1675.69 66.6983 1671.62 70.4696 1666.56 72.1204C1663.55 73.1055 1662.44 72.9591 1658.29 71.0285C1649.37 66.8764 1650.02 66.9011 1648.44 70.6506C1645.16 78.401 1638.88 78.671 1635.04 71.2253C1633.43 68.1028 1632.62 67.4253 1631.25 68.0306C1630.29 68.452 1627.34 69.801 1624.71 71.0285C1620.56 72.9591 1619.45 73.1055 1616.44 72.1204C1611.38 70.4696 1607.31 66.6983 1602.38 59.1063C1599.53 54.696 1597.2 52.2006 1595.57 51.7971C1591.23 50.718 1586.32 53.1818 1581 59.1073C1576.17 64.4828 1575.89 64.6411 1574.47 62.8044C1572.36 60.0578 1572.63 58.1489 1575.76 53.5349C1578.85 48.9901 1588.78 41.3496 1593.74 39.7008C1596.6 38.7503 1597.32 38.9086 1599.9 41.0578C1601.51 42.396 1604.23 45.9458 1605.94 48.9456C1609.96 55.9937 1613.74 58.2863 1621.35 58.2913C1628.34 58.2962 1632.01 56.4358 1634.82 51.4608C1637.7 46.3572 1638.61 39.2577 1636.6 37.605C1635.73 36.8929 1634.23 36.6179 1633.26 36.9898C1629.44 38.4556 1622.52 39.2735 1620.47 38.5021C1611.68 35.1986 1614.59 11.8092 1623.79 11.8092C1625.97 11.8092 1626.15 12.102 1625.48 14.5291C1625.07 16.0256 1624.69 19.1906 1624.65 21.5643C1624.55 26.4068 1627.31 29.6124 1631.58 29.6124C1634.64 29.6124 1636 26.9458 1636 20.9551C1636 10.6144 1631.89 2.9076 1626.38 2.9076C1624.01 2.9076 1623.71 3.12718 1569.5 45.3177C1542.8 66.1 1531.78 74.1153 1529.92 74.1173C1525.13 74.1233 1521.65 68.2373 1520.52 58.2369C1519.69 50.8258 1521.06 47.4155 1524.86 47.4155C1529.41 47.4155 1532.4 50.4065 1532.38 54.9502C1532.37 57.0619 1532 60.2358 1531.56 62.0042C1530.92 64.5501 1531.06 65.2187 1532.24 65.2187C1537.95 65.2187 1542.99 54.1471 1540.94 46.0961C1539.24 39.4308 1537.27 38.0975 1530.27 38.8829C1518.7 40.1785 1519.53 40.3516 1519.17 36.5971C1518.17 26.1427 1525.44 17.7436 1535.5 17.7436C1542.44 17.7436 1547.69 21.2132 1551.21 28.1288C1553.97 33.5548 1557.93 37.5249 1560.59 37.5249C1563.81 37.5249 1577.38 28.1258 1580.41 23.8006C1583.18 19.8533 1583.74 15.9069 1581.81 13.997C1580.9 13.091 1579.34 14.1562 1574.98 18.6684C1569.21 24.6532 1564.71 26.6402 1560.16 25.213C1559.06 24.8658 1556.1 21.328 1553.6 17.3509C1549.05 10.1357 1543.86 5.63446 1538.59 4.32493C1536.75 3.86898 1534.31 4.56528 1530.05 6.75902C1526.77 8.44835 1523.86 9.83106 1523.59 9.83106C1523.32 9.83106 1522.22 7.87271 1521.15 5.47818C1517.92 -1.7321 1512.63 -1.56297 1509.63 5.84612C1508.74 8.03788 1507.79 9.83106 1507.52 9.83106C1507.25 9.83106 1504.37 8.45131 1501.11 6.76397C1496.59 4.4189 1494.48 3.85216 1492.17 4.3556C1487.87 5.28828 1480.38 12.1623 1476.78 18.4765C1471.3 28.0694 1465.19 28.1208 1456.08 18.6515C1451.65 14.0484 1450.16 13.0346 1449.21 13.9733C1446.85 16.3055 1447.94 20.2083 1452.53 25.844C1455.51 29.5046 1467.76 37.5249 1470.38 37.5249C1473.08 37.5249 1476.81 33.803 1480.67 27.2376C1484.89 20.0728 1487.83 18.2787 1495.39 18.2559C1502.76 18.2351 1505.63 19.5081 1508.91 24.2496C1510.77 26.931 1511.33 29.0951 1511.41 33.8545C1511.5 39.8343 1511.43 39.9906 1509 39.7542C1507.62 39.6207 1503.72 39.2281 1500.31 38.8819L1494.13 38.2538L1492.07 41.5978C1489.61 45.5927 1489.3 53.7277 1491.42 58.7443C1492.9 62.2456 1497.24 65.8003 1498.84 64.8211C1499.35 64.5086 1499.54 61.4108 1499.26 57.9372C1498.81 52.4232 1499.02 51.356 1500.87 49.5193C1504.05 46.379 1508.77 46.6935 1510.12 50.1355C1512.29 55.6604 1509.26 69.7348 1505.24 72.7514C1501.32 75.6969 1498.89 74.4002 1478 58.2132C1446.08 33.4776 1431.38 22.0094 1420 12.9654C1414.22 8.37515 1408.52 4.17756 1407.32 3.63852C1400.71 0.653525 1395.77 7.55028 1395.6 19.9996C1395.52 25.843 1395.86 27.923 1397 28.6391C1399.53 30.2305 1401.97 29.7291 1404.67 27.0645C1406.87 24.8896 1407.16 23.9134 1406.69 20.3883C1406.38 18.1174 1405.82 15.2581 1405.45 14.0346C1404.87 12.1336 1405.14 11.8092 1407.31 11.8092C1408.71 11.8092 1410.58 12.5213 1411.46 13.3917C1416.14 18.0255 1417.5 29.645 1414.01 35.2995C1412.21 38.2172 1411.58 38.5139 1407.16 38.5139C1404.49 38.5139 1400.84 38.0115 1399.06 37.3983C1396.4 36.4785 1395.55 36.5576 1394.24 37.8483C1392.85 39.2231 1392.82 40.1123 1393.96 45.1397C1394.94 49.4728 1396.17 51.7684 1399.01 54.5803C1402.57 58.0974 1403.1 58.2952 1409.13 58.2913C1416.52 58.2873 1421.13 56.0768 1423.81 51.2521C1429.35 41.2715 1433.32 38.0303 1437.99 39.6563C1442.3 41.1528 1452.26 49.1533 1455.19 53.4726C1458.35 58.1212 1458.63 60.0261 1456.58 62.8024C1455.23 64.6282 1454.88 64.4245 1449.33 58.6028C1439.92 48.728 1435.27 48.8418 1428.62 59.1063C1423.55 66.9219 1419.4 70.6724 1414.22 72.1075C1410.9 73.0274 1409.86 72.8088 1404.56 70.074C1398.95 67.182 1398.54 67.1098 1397.31 68.7764C1396.59 69.7476 1396 71.0473 1396 71.6644C1396 73.7613 1391.26 77.2596 1388.88 76.9213C1386.84 76.6315 1385.66 75.3398 1381.5 68.8407C1380.62 67.4599 1379.81 67.6172 1374.5 70.1937C1369.19 72.7732 1368.06 72.9888 1364.72 72.0759C1359.68 70.7001 1354.47 66.0109 1350.77 59.5286C1344.76 49.002 1339.28 48.7646 1329.76 58.6187C1324.13 64.4373 1323.79 64.6342 1322.43 62.8044C1320.53 60.2546 1320.63 58.4021 1322.86 54.8335C1327.17 47.9219 1338.53 39.503 1343.55 39.503C1347.12 39.503 1350.29 42.4643 1354.53 49.7527C1358.3 56.24 1361.93 58.2873 1369.67 58.2913C1374.88 58.2943 1376.33 57.8887 1378.96 55.7049C1383.89 51.6013 1387.02 43.2466 1385.45 38.3666C1384.9 36.6565 1384.29 36.4409 1381.65 37.0284C1368.98 39.8433 1366.71 39.4565 1364.45 34.1007C1360.7 25.2249 1365.1 11.8092 1371.75 11.8092C1373.97 11.8092 1374.09 12.0644 1373.34 15.0237C1372.1 19.9166 1372.43 25.5206 1374.05 27.0883C1376.48 29.4432 1380.52 29.9496 1382.36 28.1298C1385.98 24.5464 1383.36 7.6205 1378.68 4.37933C1374.07 1.18861 1374.73 0.802874 1343.93 24.8292C1329.26 36.2806 1304.99 55.1569 1291.69 65.466C1279.08 75.2468 1276.73 75.9441 1272.63 71.1244C1269.54 67.4945 1268.79 63.926 1269.19 54.8335C1269.49 48.0614 1269.56 47.9031 1272.31 47.5906C1278.56 46.8824 1282.3 52.8781 1279.97 59.8669C1277.12 68.3946 1285.03 65.4106 1288.34 56.7088C1289.92 52.5606 1290.02 51.1374 1289.04 46.7855C1287.42 39.5327 1285.44 38.0788 1278.27 38.8829C1266.42 40.2102 1267.53 40.5959 1267.24 35.0522C1267.05 31.3818 1267.57 29.1109 1269.24 26.2436C1272.85 20.0699 1276.11 18.2381 1283.5 18.2381C1291.31 18.2381 1294.02 19.965 1299.07 28.1624C1305.41 38.4417 1308.4 39.3546 1317.02 33.6438C1328.76 25.8648 1334.08 17.5428 1329.63 13.8961C1328.55 13.006 1327.29 13.9011 1323.57 18.2035C1320.34 21.9491 1317.69 23.9866 1315.03 24.7739C1308.79 26.6254 1306.73 25.4939 1301.63 17.4083C1297.05 10.1288 1291.91 5.59094 1286.87 4.37735C1285 3.92634 1282.5 4.61869 1278.15 6.78771C1274.8 8.4612 1271.84 9.83106 1271.57 9.83106C1271.31 9.83106 1270.22 7.87271 1269.15 5.47818C1265.88 -1.82606 1260.12 -1.82606 1256.85 5.47818C1255.78 7.87271 1254.68 9.83106 1254.41 9.83106C1254.14 9.83106 1251.32 8.49088 1248.13 6.85397C1243.72 4.58407 1241.6 4.02624 1239.17 4.50494C1234.79 5.37136 1227.45 12.0297 1223.78 18.4765C1218.39 27.9191 1212.15 28.0912 1203.36 19.0402C1199.9 15.4766 1197.51 13.7626 1196.52 14.1374C1193.17 15.4084 1195.48 21.9689 1201.17 27.3068C1205.97 31.8249 1215.11 37.5249 1217.54 37.5249C1220.09 37.5249 1223.88 33.6804 1227.67 27.2376C1231.9 20.055 1234.88 18.2381 1242.42 18.2381C1249.82 18.2381 1252.63 19.511 1256.01 24.3822C1257.98 27.2406 1258.49 29.2068 1258.5 33.987C1258.5 39.8047 1258.42 39.9896 1256 39.7542C1254.62 39.6207 1250.72 39.2281 1247.31 38.8819C1241.15 38.2558 1241.12 38.2637 1239.16 41.4673C1236.12 46.4067 1235.72 50.5073 1237.72 56.3804C1240.9 65.7162 1248.51 68.5222 1246.04 59.4475C1244.1 52.3154 1247.04 47.4155 1253.25 47.4155C1255.33 47.4155 1256.3 48.0624 1257.03 49.9525C1259.27 55.7801 1256.85 68.3827 1252.77 72.1382C1248.4 76.1667 1247.1 75.408 1212.97 48.9298C1195.11 35.075 1175.44 19.698 1169.25 14.7596C1163.06 9.82117 1156.73 5.06475 1155.19 4.18844C1148.09 0.157014 1142.78 6.82826 1142.6 19.9996C1142.53 25.8331 1142.86 27.93 1144 28.6638C1145.82 29.8418 1149.96 29.011 1151.97 27.0655C1153.59 25.4949 1153.93 18.8642 1152.61 14.5291C1151.87 12.0822 1152.03 11.8092 1154.22 11.8092C1161.44 11.8092 1165.88 27.3988 1160.94 35.4112C1158.9 38.7226 1158.86 38.7355 1152.7 38.2291C1149.29 37.9492 1145.5 37.4052 1144.28 37.0205C1138.39 35.164 1139.71 48.8774 1146 54.8306C1148.65 57.3457 1149.98 57.7888 1155.78 58.1034C1161.56 58.4149 1162.99 58.137 1166 56.1242C1167.93 54.8355 1170.63 51.7229 1172.01 49.2057C1176.94 40.232 1180.36 37.8028 1185.23 39.8393C1193.46 43.2872 1205 54.613 1205 59.2438C1205 60.1458 1204.34 61.7481 1203.53 62.8044C1202.11 64.6411 1201.83 64.4828 1197 59.1073C1191.68 53.1818 1186.77 50.718 1182.43 51.7971C1180.8 52.2006 1178.47 54.696 1175.62 59.1063C1170.69 66.6983 1166.62 70.4696 1161.56 72.1204C1158.55 73.1055 1157.44 72.9591 1153.29 71.0285C1144.37 66.8764 1145.02 66.9011 1143.44 70.6506C1140.16 78.401 1133.88 78.671 1130.04 71.2253C1128.43 68.1028 1127.62 67.4253 1126.25 68.0306C1125.29 68.452 1122.34 69.801 1119.71 71.0285C1115.56 72.9591 1114.45 73.1055 1111.44 72.1204C1106.38 70.4696 1102.31 66.6983 1097.38 59.1063C1094.53 54.696 1092.2 52.2006 1090.57 51.7971C1086.23 50.718 1081.32 53.1818 1076 59.1073C1071.17 64.4828 1070.89 64.6411 1069.47 62.8044C1067.36 60.0578 1067.63 58.1489 1070.76 53.5349C1073.85 48.9901 1083.78 41.3496 1088.74 39.7008C1091.6 38.7503 1092.32 38.9086 1094.9 41.0578C1096.51 42.396 1099.23 45.9458 1100.94 48.9456C1104.96 55.9937 1108.74 58.2863 1116.35 58.2913C1123.34 58.2962 1127.01 56.4358 1129.82 51.4608C1132.7 46.3572 1133.61 39.2577 1131.6 37.605C1130.73 36.8929 1129.23 36.6179 1128.26 36.9898C1124.44 38.4556 1117.52 39.2735 1115.47 38.5021C1106.68 35.1986 1109.59 11.8092 1118.79 11.8092C1120.97 11.8092 1121.15 12.102 1120.48 14.5291C1120.07 16.0256 1119.69 19.1906 1119.65 21.5643C1119.55 26.4068 1122.31 29.6124 1126.58 29.6124C1129.64 29.6124 1131 26.9458 1131 20.9551C1131 10.6144 1126.89 2.9076 1121.38 2.9076C1119.01 2.9076 1118.71 3.12718 1064.5 45.3177C1037.8 66.1 1026.78 74.1153 1024.92 74.1173C1020.13 74.1233 1016.65 68.2373 1015.52 58.2369C1014.69 50.8258 1016.06 47.4155 1019.86 47.4155C1024.41 47.4155 1027.4 50.4065 1027.38 54.9502C1027.37 57.0619 1027 60.2358 1026.56 62.0042C1025.92 64.5501 1026.06 65.2187 1027.24 65.2187C1032.95 65.2187 1037.99 54.1471 1035.94 46.0961C1034.24 39.4308 1032.27 38.0975 1025.27 38.8829C1013.7 40.1785 1014.53 40.3516 1014.17 36.5971C1013.17 26.1427 1020.44 17.7436 1030.5 17.7436C1037.44 17.7436 1042.69 21.2132 1046.21 28.1288C1048.97 33.5548 1052.93 37.5249 1055.59 37.5249C1058.81 37.5249 1072.38 28.1258 1075.41 23.8006C1078.18 19.8533 1078.74 15.9069 1076.81 13.997C1075.9 13.091 1074.34 14.1562 1069.98 18.6684C1064.21 24.6532 1059.71 26.6402 1055.16 25.213C1054.06 24.8658 1051.1 21.328 1048.6 17.3509C1044.05 10.1357 1038.86 5.63446 1033.59 4.32493C1031.75 3.86898 1029.31 4.56528 1025.05 6.75902C1021.77 8.44835 1018.86 9.83106 1018.59 9.83106C1018.32 9.83106 1017.22 7.87271 1016.15 5.47818C1012.92 -1.7321 1007.63 -1.56297 1004.63 5.84612C1003.74 8.03788 1002.79 9.83106 1002.52 9.83106C1002.25 9.83106 999.367 8.45131 996.113 6.76397C991.591 4.4189 989.483 3.85216 987.166 4.3556C982.871 5.28828 975.38 12.1623 971.777 18.4765C966.304 28.0694 960.188 28.1208 951.078 18.6515C946.649 14.0484 945.161 13.0346 944.212 13.9733C941.854 16.3055 942.945 20.2083 947.531 25.844C950.51 29.5046 962.763 37.5249 965.376 37.5249C968.083 37.5249 971.808 33.803 975.671 27.2376C979.888 20.0728 982.828 18.2787 990.392 18.2559C997.756 18.2351 1000.63 19.5081 1003.91 24.2496C1005.77 26.931 1006.33 29.0951 1006.41 33.8545C1006.5 39.8343 1006.43 39.9906 1004 39.7542C1002.62 39.6207 998.717 39.2281 995.315 38.8819L989.131 38.2538L987.069 41.5978C984.607 45.5927 984.297 53.7277 986.416 58.7443C987.895 62.2456 992.24 65.8003 993.842 64.8211C994.353 64.5086 994.541 61.4108 994.259 57.9372C993.812 52.4232 994.016 51.356 995.873 49.5193C999.048 46.379 1003.77 46.6935 1005.12 50.1355C1007.29 55.6604 1004.26 69.7348 1000.24 72.7514C996.317 75.6969 993.888 74.4002 973 58.2132C941.079 33.4776 926.38 22.0094 915 12.9654C909.225 8.37515 903.521 4.17756 902.324 3.63852C895.707 0.653525 890.766 7.55028 890.602 19.9996C890.524 25.843 890.861 27.923 892 28.6391C894.531 30.2305 896.973 29.7291 899.667 27.0645C901.866 24.8896 902.161 23.9134 901.685 20.3883C901.379 18.1174 900.821 15.259 900.447 14.0346C899.866 12.1336 900.138 11.8092 902.312 11.8092C903.712 11.8092 905.577 12.5213 906.457 13.3917C911.142 18.0255 912.497 29.645 909.011 35.2995C907.212 38.2172 906.58 38.5139 902.164 38.5139C899.488 38.5139 895.842 38.0115 894.063 37.3983C891.396 36.4785 890.549 36.5576 889.244 37.8483C887.855 39.2231 887.82 40.1123 888.957 45.1397C889.938 49.4728 891.166 51.7684 894.009 54.5803C897.565 58.0974 898.104 58.2952 904.132 58.2913C911.52 58.2873 916.129 56.0768 918.808 51.2521C924.352 41.2715 928.317 38.0303 932.995 39.6563C937.301 41.1528 947.262 49.1533 950.195 53.4726C953.351 58.1212 953.634 60.0261 951.582 62.8024C950.232 64.6282 949.882 64.4245 944.332 58.6028C934.92 48.728 930.268 48.8418 923.616 59.1063C918.55 66.9219 914.397 70.6724 909.219 72.1075C905.9 73.0274 904.86 72.8088 899.556 70.074C893.945 67.182 893.538 67.1098 892.306 68.7764C891.587 69.7476 891 71.0473 891 71.6644C891 73.7613 886.263 77.2596 883.882 76.9213C881.842 76.6315 880.662 75.3398 876.5 68.8407C875.616 67.4599 874.805 67.6172 869.498 70.1937C864.185 72.7732 863.063 72.9888 859.721 72.0759C854.683 70.7001 849.469 66.0109 845.77 59.5286C839.764 49.002 834.281 48.7646 824.756 58.6187C819.132 64.4373 818.787 64.6342 817.427 62.8044C815.532 60.2546 815.632 58.4021 817.859 54.8335C822.17 47.9219 833.533 39.503 838.55 39.503C842.123 39.503 845.295 42.4643 849.528 49.7527C853.297 56.24 856.927 58.2873 864.673 58.2913C869.877 58.2943 871.335 57.8887 873.959 55.7049C878.889 51.6013 882.019 43.2466 880.453 38.3666C879.904 36.6565 879.291 36.4409 876.649 37.0284C863.984 39.8433 861.714 39.4565 859.452 34.1007C855.702 25.2249 860.096 11.8092 866.754 11.8092C868.968 11.8092 869.094 12.0644 868.344 15.0237C867.103 19.9166 867.431 25.5206 869.049 27.0883C871.481 29.4432 875.517 29.9496 877.356 28.1298C880.979 24.5464 878.358 7.6205 873.679 4.37933C869.073 1.18861 869.729 0.802874 838.933 24.8292C824.257 36.2806 799.99 55.1569 786.693 65.466C774.078 75.2468 771.729 75.9441 767.629 71.1244C764.541 67.4945 763.788 63.926 764.192 54.8335C764.493 48.0614 764.562 47.9031 767.315 47.5906C773.563 46.8824 777.302 52.8781 774.971 59.8669C772.125 68.3946 780.034 65.4106 783.34 56.7088C784.916 52.5606 785.017 51.1374 784.043 46.7855C782.421 39.5327 780.439 38.0788 773.266 38.8829C761.419 40.2102 762.531 40.5959 762.242 35.0522C762.05 31.3818 762.566 29.1109 764.242 26.2436C767.851 20.0699 771.113 18.2381 778.5 18.2381C786.308 18.2381 789.018 19.965 794.072 28.1624C800.41 38.4417 803.401 39.3546 812.02 33.6438C823.761 25.8648 829.076 17.5428 824.632 13.8961C823.549 13.006 822.291 13.9011 818.574 18.2035C815.339 21.9491 812.69 23.9866 810.033 24.7739C803.787 26.6254 801.728 25.4939 796.633 17.4083C792.046 10.1288 786.906 5.59094 781.874 4.37735C780.004 3.92634 777.497 4.61869 773.153 6.78771C769.8 8.4612 766.84 9.83106 766.575 9.83106C766.31 9.83106 765.218 7.87271 764.147 5.47818C760.88 -1.82606 755.12 -1.82606 751.853 5.47818C750.782 7.87271 749.684 9.83106 749.412 9.83106C749.14 9.83106 746.315 8.49088 743.134 6.85397C738.725 4.58407 736.596 4.02624 734.174 4.50494C729.793 5.37136 722.455 12.0297 718.777 18.4765C713.389 27.9191 707.154 28.0912 698.361 19.0402C694.899 15.4766 692.507 13.7626 691.519 14.1374C688.17 15.4084 690.484 21.9689 696.165 27.3068C700.973 31.8249 710.108 37.5249 712.54 37.5249C715.094 37.5249 718.879 33.6804 722.671 27.2376C726.898 20.055 729.876 18.2381 737.422 18.2381C744.816 18.2381 747.63 19.511 751.005 24.3822C752.985 27.2406 753.495 29.2068 753.497 33.987C753.5 39.8047 753.42 39.9896 751 39.7542C749.625 39.6207 745.717 39.2281 742.315 38.8819C736.15 38.2558 736.125 38.2637 734.155 41.4673C731.117 46.4067 730.724 50.5073 732.724 56.3804C735.903 65.7162 743.515 68.5222 741.044 59.4475C739.103 52.3154 742.036 47.4155 748.247 47.4155C750.335 47.4155 751.298 48.0624 752.025 49.9525C754.265 55.7801 751.85 68.3827 747.774 72.1382C743.402 76.1667 742.102 75.408 707.971 48.9298C690.112 35.075 670.437 19.698 664.248 14.7596C658.06 9.82117 651.734 5.06475 650.192 4.18844C643.088 0.157014 637.776 6.82826 637.602 19.9996C637.525 25.8331 637.863 27.93 639 28.6638C640.824 29.8418 644.965 29.011 646.974 27.0655C648.594 25.4949 648.932 18.8642 647.611 14.5291C646.866 12.0822 647.028 11.8092 649.217 11.8092C656.439 11.8092 660.881 27.3988 655.942 35.4112C653.901 38.7226 653.864 38.7355 647.696 38.2291C644.288 37.9492 640.5 37.4052 639.278 37.0205C633.391 35.164 634.714 48.8774 640.997 54.8306C643.652 57.3457 644.976 57.7888 650.784 58.1034C656.557 58.4149 657.991 58.137 661 56.1242C662.925 54.8355 665.63 51.7229 667.012 49.2057C671.938 40.232 675.365 37.8028 680.227 39.8393C688.459 43.2872 700 54.613 700 59.2438C700 60.1458 699.336 61.7481 698.525 62.8044C697.113 64.6411 696.833 64.4828 692.004 59.1073C686.682 53.1818 681.769 50.718 677.425 51.7971C675.798 52.2006 673.473 54.696 670.616 59.1063C665.695 66.6983 661.624 70.4696 656.565 72.1204C653.548 73.1055 652.436 72.9591 648.29 71.0285C639.374 66.8764 640.023 66.9011 638.439 70.6506C635.165 78.401 628.878 78.671 625.037 71.2253C623.427 68.1028 622.623 67.4253 621.247 68.0306C620.286 68.452 617.345 69.801 614.71 71.0285C610.564 72.9591 609.452 73.1055 606.435 72.1204C601.376 70.4696 597.305 66.6983 592.384 59.1063C589.527 54.696 587.202 52.2006 585.575 51.7971C581.231 50.718 576.318 53.1818 570.996 59.1073C566.167 64.4828 565.887 64.6411 564.475 62.8044C562.365 60.0578 562.63 58.1489 565.763 53.5349C568.849 48.9901 578.777 41.3496 583.739 39.7008C586.6 38.7503 587.321 38.9086 589.903 41.0578C591.512 42.396 594.228 45.9458 595.939 48.9456C599.961 55.9937 603.742 58.2863 611.346 58.2913C618.338 58.2962 622.007 56.4358 624.817 51.4608C627.699 46.3572 628.611 39.2577 626.597 37.605C625.731 36.8929 624.235 36.6179 623.263 36.9898C619.438 38.4556 612.519 39.2735 610.469 38.5021C601.683 35.1986 604.593 11.8092 613.791 11.8092C615.97 11.8092 616.152 12.102 615.483 14.5291C615.071 16.0246 614.694 19.1906 614.646 21.5643C614.549 26.4068 617.308 29.6124 621.576 29.6124C624.637 29.6124 626 26.9458 626 20.9551C626 10.6144 621.89 2.9076 616.376 2.9076C614.005 2.9076 613.711 3.12718 559.5 45.3177C532.797 66.1 521.783 74.1153 519.924 74.1173C515.131 74.1233 511.647 68.2373 510.522 58.2369C509.689 50.8258 511.057 47.4155 514.864 47.4155C519.414 47.4155 522.396 50.4065 522.378 54.9502C522.37 57.0619 522 60.2358 521.557 62.0042C520.918 64.5501 521.06 65.2187 522.24 65.2187C527.952 65.2187 532.987 54.1471 530.937 46.0961C529.241 39.4308 527.268 38.0975 520.266 38.8829C508.696 40.1785 509.534 40.3516 509.173 36.5971C508.166 26.1427 515.44 17.7436 525.5 17.7436C532.441 17.7436 537.689 21.2132 541.207 28.1288C543.968 33.5548 547.934 37.5249 550.593 37.5249C553.809 37.5249 567.383 28.1258 570.414 23.8006C573.18 19.8533 573.743 15.9069 571.812 13.997C570.896 13.091 569.338 14.1562 564.984 18.6684C559.208 24.6532 554.709 26.6402 550.164 25.213C549.058 24.8658 546.103 21.328 543.597 17.3509C539.05 10.1357 533.864 5.63446 528.59 4.32493C526.754 3.86898 524.311 4.56528 520.05 6.75902C516.768 8.44835 513.86 9.83106 513.588 9.83106C513.316 9.83106 512.218 7.87271 511.147 5.47818C507.922 -1.7321 502.626 -1.56297 499.628 5.84612C498.742 8.03788 497.794 9.83106 497.523 9.83106C497.251 9.83106 494.367 8.45131 491.113 6.76397C486.591 4.4189 484.483 3.85216 482.166 4.3556C477.871 5.28828 470.38 12.1623 466.777 18.4765C461.304 28.0694 455.188 28.1208 446.078 18.6515C441.649 14.0484 440.161 13.0346 439.212 13.9733C436.854 16.3055 437.945 20.2083 442.531 25.844C445.51 29.5046 457.763 37.5249 460.376 37.5249C463.083 37.5249 466.808 33.803 470.671 27.2376C474.888 20.0728 477.828 18.2787 485.392 18.2559C492.756 18.2351 495.628 19.5081 498.913 24.2496C500.771 26.931 501.332 29.0951 501.406 33.8545C501.497 39.8343 501.434 39.9906 499 39.7542C497.625 39.6207 493.717 39.2281 490.315 38.8819L484.131 38.2538L482.069 41.5978C479.607 45.5927 479.297 53.7277 481.416 58.7443C482.895 62.2456 487.24 65.8003 488.842 64.8211C489.353 64.5086 489.541 61.4108 489.259 57.9372C488.812 52.4232 489.016 51.356 490.873 49.5193C494.048 46.379 498.766 46.6935 500.119 50.1355C502.293 55.6604 499.256 69.7348 495.239 72.7514C491.317 75.6969 488.888 74.4002 468 58.2132C436.079 33.4776 421.38 22.0094 410 12.9654C404.225 8.37515 398.521 4.17756 397.324 3.63852C390.707 0.653525 385.766 7.55028 385.602 19.9996C385.524 25.843 385.861 27.923 387 28.6391C389.531 30.2305 391.973 29.7291 394.667 27.0645C396.866 24.8896 397.161 23.9134 396.685 20.3883C396.379 18.1174 395.821 15.259 395.447 14.0346C394.866 12.1336 395.138 11.8092 397.312 11.8092C398.712 11.8092 400.577 12.5213 401.457 13.3917C406.142 18.0255 407.497 29.645 404.011 35.2995C402.212 38.2172 401.58 38.5139 397.164 38.5139C394.488 38.5139 390.842 38.0115 389.063 37.3983C386.396 36.4785 385.549 36.5576 384.244 37.8483C382.855 39.2231 382.82 40.1123 383.957 45.1397C384.938 49.4728 386.166 51.7684 389.009 54.5803C392.565 58.0974 393.104 58.2952 399.132 58.2913C406.52 58.2873 411.129 56.0768 413.808 51.2521C419.352 41.2715 423.317 38.0303 427.995 39.6563C432.301 41.1528 442.262 49.1533 445.195 53.4726C448.351 58.1212 448.634 60.0261 446.582 62.8024C445.232 64.6282 444.882 64.4245 439.332 58.6028C429.92 48.728 425.268 48.8418 418.616 59.1063C413.55 66.9219 409.397 70.6724 404.219 72.1075C400.9 73.0274 399.86 72.8088 394.556 70.074C388.945 67.182 388.538 67.1098 387.306 68.7764C386.587 69.7476 386 71.0473 386 71.6644C386 73.7613 381.263 77.2596 378.882 76.9213C376.842 76.6315 375.662 75.3398 371.5 68.8407C370.616 67.4599 369.805 67.6172 364.498 70.1937C359.185 72.7732 358.063 72.9888 354.721 72.0759C349.683 70.7001 344.469 66.0109 340.77 59.5286C334.764 49.002 329.281 48.7646 319.756 58.6187C314.132 64.4373 313.787 64.6342 312.427 62.8044C310.532 60.2546 310.632 58.4021 312.859 54.8335C317.17 47.9219 328.533 39.503 333.55 39.503C337.123 39.503 340.295 42.4643 344.528 49.7527C348.297 56.24 351.927 58.2873 359.673 58.2913C364.877 58.2943 366.335 57.8887 368.959 55.7049C373.889 51.6013 377.019 43.2466 375.453 38.3666C374.904 36.6565 374.291 36.4409 371.649 37.0284C358.984 39.8433 356.714 39.4565 354.452 34.1007C350.702 25.2249 355.096 11.8092 361.754 11.8092C363.968 11.8092 364.094 12.0644 363.344 15.0237C362.103 19.9166 362.431 25.5206 364.049 27.0883C366.481 29.4432 370.517 29.9496 372.356 28.1298C375.979 24.5464 373.358 7.6205 368.679 4.37933C364.073 1.18861 364.729 0.802874 333.933 24.8292C319.257 36.2806 294.99 55.1569 281.693 65.466C269.078 75.2468 266.729 75.9441 262.629 71.1244C259.541 67.4945 258.788 63.926 259.192 54.8335C259.493 48.0614 259.562 47.9031 262.315 47.5906C268.563 46.8824 272.302 52.8781 269.971 59.8669C267.125 68.3946 275.034 65.4106 278.34 56.7088C279.916 52.5606 280.017 51.1374 279.043 46.7855C277.421 39.5327 275.439 38.0788 268.266 38.8829C256.419 40.2102 257.531 40.5959 257.242 35.0522C257.05 31.3818 257.566 29.1109 259.242 26.2436C262.851 20.0699 266.113 18.2381 273.5 18.2381C281.308 18.2381 284.018 19.965 289.072 28.1624C295.41 38.4417 298.401 39.3546 307.02 33.6438C318.761 25.8648 324.076 17.5428 319.632 13.8961C318.549 13.006 317.291 13.9011 313.574 18.2035C310.339 21.9491 307.69 23.9866 305.033 24.7739C298.787 26.6254 296.728 25.4939 291.633 17.4083C287.046 10.1288 281.906 5.59094 276.874 4.37735C275.004 3.92634 272.497 4.61869 268.153 6.78771C264.8 8.4612 261.84 9.83106 261.575 9.83106C261.31 9.83106 260.218 7.87271 259.147 5.47818C255.88 -1.82606 250.12 -1.82606 246.853 5.47818C245.782 7.87271 244.684 9.83106 244.412 9.83106C244.14 9.83106 241.315 8.49088 238.134 6.85397C233.725 4.58407 231.596 4.02624 229.174 4.50494C224.793 5.37136 217.455 12.0297 213.777 18.4765C208.389 27.9191 202.154 28.0912 193.361 19.0402C189.899 15.4766 187.507 13.7626 186.519 14.1374C183.17 15.4084 185.484 21.9689 191.165 27.3068C195.973 31.8249 205.108 37.5249 207.54 37.5249C210.094 37.5249 213.879 33.6804 217.671 27.2376C221.898 20.055 224.876 18.2381 232.422 18.2381C239.816 18.2381 242.63 19.511 246.005 24.3822C247.985 27.2406 248.495 29.2068 248.497 33.987C248.5 39.8047 248.42 39.9896 246 39.7542C244.625 39.6207 240.717 39.2281 237.315 38.8819C231.15 38.2558 231.125 38.2637 229.155 41.4673C226.117 46.4067 225.724 50.5073 227.724 56.3804C230.903 65.7162 238.515 68.5222 236.044 59.4475C234.103 52.3154 237.036 47.4155 243.247 47.4155C245.335 47.4155 246.298 48.0624 247.025 49.9525C249.265 55.7801 246.85 68.3827 242.774 72.1382C238.402 76.1667 237.102 75.408 202.971 48.9298C185.112 35.075 165.437 19.698 159.248 14.7596C153.06 9.82117 146.734 5.06475 145.192 4.18844C138.088 0.157014 132.776 6.82826 132.602 19.9996C132.525 25.8331 132.863 27.93 134 28.6638C135.824 29.8418 139.965 29.011 141.974 27.0655C143.594 25.4949 143.932 18.8642 142.611 14.5291C141.866 12.0822 142.028 11.8092 144.217 11.8092C151.439 11.8092 155.881 27.3988 150.942 35.4112C148.901 38.7226 148.864 38.7355 142.696 38.2291C139.288 37.9492 135.5 37.4052 134.278 37.0205C128.391 35.164 129.714 48.8774 135.997 54.8306C138.652 57.3457 139.976 57.7888 145.784 58.1034C151.557 58.4149 152.991 58.137 156 56.1242C157.925 54.8355 160.63 51.7229 162.012 49.2057C166.938 40.232 170.365 37.8028 175.227 39.8393C183.459 43.2872 195 54.613 195 59.2438C195 60.1458 194.336 61.7481 193.525 62.8044C192.113 64.6411 191.833 64.4828 187.004 59.1073C181.682 53.1818 176.769 50.718 172.425 51.7971C170.798 52.2006 168.473 54.696 165.616 59.1063C160.695 66.6983 156.624 70.4696 151.565 72.1204C148.548 73.1055 147.436 72.9591 143.29 71.0285C134.374 66.8764 135.023 66.9011 133.439 70.6506C130.165 78.401 123.878 78.671 120.037 71.2253C118.427 68.1028 117.623 67.4253 116.247 68.0306C115.286 68.452 112.345 69.801 109.71 71.0285C105.564 72.9591 104.452 73.1055 101.435 72.1204C96.376 70.4696 92.305 66.6983 87.384 59.1063C84.527 54.696 82.202 52.2006 80.575 51.7971C76.231 50.718 71.318 53.1818 65.996 59.1073C61.167 64.4828 60.887 64.6411 59.475 62.8044C57.365 60.0578 57.63 58.1489 60.763 53.5349C63.849 48.9901 73.777 41.3496 78.739 39.7008C81.6 38.7503 82.321 38.9086 84.903 41.0578C86.512 42.396 89.228 45.9458 90.939 48.9456C94.961 55.9937 98.742 58.2863 106.346 58.2913C113.338 58.2962 117.007 56.4358 119.817 51.4608C122.699 46.3572 123.611 39.2577 121.597 37.605C120.731 36.8929 119.235 36.6179 118.263 36.9898C114.438 38.4556 107.519 39.2735 105.469 38.5021C96.683 35.1986 99.593 11.8092 108.791 11.8092C110.97 11.8092 111.152 12.102 110.483 14.5291C110.071 16.0256 109.694 19.1906 109.646 21.5643C109.549 26.4068 112.308 29.6124 116.576 29.6124C119.637 29.6124 121 26.9458 121 20.9551C121 10.6144 116.89 2.9076 111.376 2.9076C109.005 2.9076 108.711 3.12718 54.5 45.3177C27.797 66.1 16.783 74.1153 14.924 74.1173C10.131 74.1233 6.647 68.2373 5.522 58.2369C4.689 50.8258 6.057 47.4155 9.864 47.4155C14.414 47.4155 17.396 50.4065 17.378 54.9502C17.37 57.0619 17 60.2358 16.557 62.0042C15.918 64.5501 16.06 65.2187 17.24 65.2187C22.952 65.2187 27.987 54.1471 25.937 46.0961C24.241 39.4308 22.268 38.0975 15.266 38.8829C3.696 40.1785 4.534 40.3516 4.173 36.5971C3.166 26.1427 10.44 17.7436 20.5 17.7436C27.441 17.7436 32.689 21.2132 36.207 28.1288C38.968 33.5548 42.934 37.5249 45.593 37.5249C48.809 37.5249 62.383 28.1258 65.414 23.8006C68.18 19.8533 68.743 15.9069 66.812 13.997C65.896 13.091 64.338 14.1562 59.984 18.6684C54.208 24.6532 49.709 26.6402 45.164 25.213C44.058 24.8658 41.103 21.328 38.597 17.3509C34.05 10.1357 28.864 5.63446 23.59 4.32493C21.754 3.86898 19.311 4.56528 15.05 6.75902C11.768 8.44835 8.835 9.83106 8.533 9.83106C8.231 9.83106 7.258 8.03788 6.372 5.84612C4.809 1.98283 1.92 -0.640172 0.631 0.634733Z" fill="#990711"/>
</svg>
