<svg width="19" height="28" viewBox="0 0 19 28" fill="none" xmlns="http://www.w3.org/2000/svg">
<path d="M9.49979 10.6321C10.8639 10.6321 11.9698 9.52628 11.9698 8.16214C11.9698 6.798 10.8639 5.69214 9.49979 5.69214C8.13564 5.69214 7.02979 6.798 7.02979 8.16214C7.02979 9.52628 8.13564 10.6321 9.49979 10.6321Z" stroke="#990711" stroke-width="2"/>
<path d="M2.86601 6.72129C4.42559 -0.134541 14.5827 -0.126624 16.1343 6.72921C17.0448 10.7509 14.5431 14.155 12.3502 16.2609C10.7589 17.7967 8.24143 17.7967 6.64226 16.2609C4.45726 14.155 1.95559 10.743 2.86601 6.72129Z" stroke="#990711" stroke-width="2"/>
<circle cx="10" cy="24" r="4" fill="#990711"/>
<circle cx="10.0002" cy="24" r="2.66667" fill="white"/>
</svg>
