<svg width="40" height="40" viewBox="0 0 40 40" fill="none" xmlns="http://www.w3.org/2000/svg">
<path d="M3.3335 3.33325H36.6668" stroke="#990711" stroke-width="3" stroke-linecap="round" stroke-linejoin="round"/>
<path d="M31.6665 3.33325H8.33317C7.4127 3.33325 6.6665 4.07944 6.6665 4.99992V34.9999C6.6665 35.9204 7.4127 36.6666 8.33317 36.6666H31.6665C32.587 36.6666 33.3332 35.9204 33.3332 34.9999V4.99992C33.3332 4.07944 32.587 3.33325 31.6665 3.33325Z" stroke="#990711" stroke-width="3" stroke-linejoin="round"/>
<path d="M16.6665 26.6667H23.3332V36.6667H16.6665V26.6667Z" stroke="#990711" stroke-width="3" stroke-linecap="round" stroke-linejoin="round"/>
<path d="M12.5 10H14.1667" stroke="#990711" stroke-width="3" stroke-linecap="round"/>
<path d="M12.5 15H14.1667" stroke="#990711" stroke-width="3" stroke-linecap="round"/>
<path d="M19.1665 10H20.8332" stroke="#990711" stroke-width="3" stroke-linecap="round"/>
<path d="M19.1665 15H20.8332" stroke="#990711" stroke-width="3" stroke-linecap="round"/>
<path d="M25.8335 10H27.5002" stroke="#990711" stroke-width="3" stroke-linecap="round"/>
<path d="M25.8335 15H27.5002" stroke="#990711" stroke-width="3" stroke-linecap="round"/>
<path d="M3.3335 36.6667H36.6668" stroke="#990711" stroke-width="3" stroke-linecap="round" stroke-linejoin="round"/>
<path d="M23.3336 26.6667H25.0002C25.4605 26.6667 25.8417 26.2901 25.7539 25.8382C25.2933 23.4712 22.8926 21.6667 20.0002 21.6667C17.1078 21.6667 14.7071 23.4712 14.2466 25.8382C14.1587 26.2901 14.54 26.6667 15.0002 26.6667H16.6669" stroke="#990711" stroke-width="3" stroke-linecap="round" stroke-linejoin="round"/>
</svg>
