<svg width="35" height="35" viewBox="0 0 35 35" fill="none" xmlns="http://www.w3.org/2000/svg">
<path d="M23.3334 10.2081C23.3334 9.40272 23.9863 8.7498 24.7917 8.7498C25.5971 8.7498 26.25 9.40272 26.25 10.2081C26.25 11.0136 25.5971 11.6665 24.7917 11.6665C23.9863 11.6665 23.3334 11.0136 23.3334 10.2081Z" fill="white"/>
<path fill-rule="evenodd" clip-rule="evenodd" d="M17.5 10.5727C13.6743 10.5727 10.573 13.6741 10.573 17.4998C10.573 21.3255 13.6743 24.4269 17.5 24.4269C21.3258 24.4269 24.4271 21.3255 24.4271 17.4998C24.4271 13.6741 21.3258 10.5727 17.5 10.5727ZM12.7605 17.4998C12.7605 14.8822 14.8824 12.7602 17.5 12.7602C20.1176 12.7602 22.2396 14.8822 22.2396 17.4998C22.2396 20.1174 20.1176 22.2394 17.5 22.2394C14.8824 22.2394 12.7605 20.1174 12.7605 17.4998Z" fill="white"/>
<path fill-rule="evenodd" clip-rule="evenodd" d="M25.1683 4.13128C20.1129 3.56627 14.8872 3.56627 9.83179 4.13128C6.89754 4.45923 4.52872 6.7707 4.18375 9.72022C3.57921 14.889 3.57921 20.1106 4.18375 25.2794C4.52872 28.2289 6.89754 30.5404 9.83179 30.8683C14.8872 31.4333 20.1129 31.4333 25.1683 30.8683C28.1026 30.5404 30.4714 28.2289 30.8164 25.2794C31.4209 20.1106 31.4209 14.889 30.8164 9.72022C30.4714 6.7707 28.1026 4.45923 25.1683 4.13128ZM10.0748 6.30525C14.9687 5.75828 20.0314 5.75828 24.9254 6.30525C26.8651 6.52204 28.4189 8.05273 28.6437 9.97434C29.2285 14.9743 29.2285 20.0253 28.6437 25.0253C28.4189 26.9469 26.8651 28.4776 24.9254 28.6944C20.0314 29.2413 14.9687 29.2413 10.0748 28.6944C8.13502 28.4776 6.58119 26.9469 6.35644 25.0253C5.77165 20.0253 5.77165 14.9743 6.35644 9.97434C6.58119 8.05273 8.13502 6.52204 10.0748 6.30525Z" fill="white"/>
</svg>
