<svg width="35" height="35" viewBox="0 0 35 35" fill="none" xmlns="http://www.w3.org/2000/svg">
<path fill-rule="evenodd" clip-rule="evenodd" d="M8.44019 20.4454C8.50402 20.4669 8.56846 20.4822 8.63283 20.4916C8.70302 20.6565 8.79373 20.8699 8.89954 21.1195C9.15777 21.7285 9.50572 22.5522 9.86487 23.4116C10.5973 25.164 11.3361 26.9705 11.4993 27.4876C11.7013 28.1268 11.9148 28.5614 12.1479 28.8581C12.2684 29.0115 12.4078 29.1455 12.5709 29.2469C12.653 29.2979 12.7397 29.3398 12.8303 29.371C12.8343 29.3724 12.8382 29.3738 12.8422 29.3751C13.3089 29.5513 13.7344 29.4779 14.0008 29.3881C14.1433 29.3401 14.2587 29.2821 14.3404 29.2352C14.3821 29.2112 14.4173 29.1888 14.4454 29.1699L14.452 29.1655L18.5736 26.5952L23.3343 30.2451C23.4046 30.299 23.4812 30.3442 23.5623 30.3796C24.1343 30.6291 24.6881 30.7162 25.2091 30.645C25.7292 30.574 26.1422 30.3555 26.4495 30.1096C26.7506 29.8687 26.9546 29.599 27.0817 29.3986C27.1466 29.2962 27.1954 29.2057 27.2297 29.1363C27.247 29.1015 27.2609 29.0715 27.2716 29.0473L27.2853 29.0155L27.2905 29.0031L27.2927 28.9977L27.2937 28.9953L27.2946 28.993C27.3196 28.9305 27.3388 28.8657 27.3519 28.7997L31.6981 6.88749C31.712 6.81741 31.719 6.74614 31.719 6.6747C31.719 6.03301 31.4772 5.42284 30.9087 5.05258C30.4228 4.73613 29.8815 4.7225 29.5394 4.74847C29.1704 4.77648 28.8295 4.86758 28.6008 4.94037C28.4818 4.97826 28.382 5.01481 28.3101 5.04269C28.2739 5.05671 28.2443 5.06873 28.2222 5.0779L28.2056 5.08488L3.83144 14.6465L3.82828 14.6476C3.81275 14.6533 3.79281 14.6607 3.76911 14.67C3.72191 14.6883 3.65867 14.7142 3.58481 14.7477C3.44075 14.813 3.23865 14.915 3.03126 15.0571C2.69995 15.2839 1.93798 15.9053 2.06629 16.931C2.16865 17.7492 2.7292 18.2517 3.07073 18.4934C3.25826 18.6261 3.43641 18.721 3.56616 18.7827C3.62636 18.8114 3.75133 18.8622 3.80556 18.8842L3.81924 18.8898L8.44019 20.4454ZM29.0586 7.09913L29.0552 7.10061C29.0431 7.10589 29.0309 7.11094 29.0186 7.11577L4.61478 16.689C4.60204 16.694 4.5892 16.6988 4.57628 16.7033L4.5627 16.7084C4.54709 16.7145 4.5208 16.7252 4.48781 16.7401C4.46911 16.7486 4.44958 16.7579 4.42968 16.7678C4.45702 16.7832 4.4832 16.7966 4.50645 16.8076C4.52878 16.8183 4.54581 16.8255 4.55513 16.8294L9.13813 18.3723C9.22202 18.4005 9.30022 18.4379 9.372 18.483L24.5048 9.6244L24.5189 9.61603C24.53 9.60952 24.5444 9.60114 24.5618 9.59133C24.5963 9.57186 24.6436 9.54594 24.6999 9.5173C24.8049 9.46384 24.9729 9.38449 25.1622 9.32599C25.294 9.28525 25.6826 9.1705 26.1028 9.30526C26.3621 9.38843 26.6305 9.56723 26.8052 9.87014C26.8919 10.0206 26.9381 10.1718 26.9605 10.3102C27.02 10.5282 27.0106 10.7434 26.964 10.9293C26.8637 11.3296 26.5825 11.6419 26.3266 11.8807C26.1073 12.0855 23.2703 14.8211 20.4715 17.5216C19.0758 18.8683 17.6944 20.2017 16.6618 21.1984L15.9836 21.8531L24.5468 28.4183C24.7432 28.4886 24.8593 28.485 24.9131 28.4777C24.9771 28.4689 25.0294 28.4443 25.0829 28.4015C25.1428 28.3536 25.1951 28.289 25.2342 28.2273L25.2358 28.2248L29.4511 6.97248C29.3885 6.98752 29.3253 7.00542 29.2643 7.02483C29.1953 7.04681 29.1383 7.06774 29.1006 7.08237C29.0819 7.08962 29.0684 7.09511 29.0611 7.09814L29.0586 7.09913ZM16.7193 25.1736L15.0109 23.8638L14.5969 26.4971L16.7193 25.1736ZM13.4436 21.2647L15.1425 19.6246C16.1752 18.6278 17.5568 17.2942 18.9526 15.9474L20.3708 14.5791L10.8625 20.1453L10.9135 20.2656C11.1726 20.8768 11.5221 21.7041 11.8832 22.568C12.1532 23.214 12.4355 23.8941 12.6926 24.5239L13.1054 21.8983C13.1452 21.6451 13.2688 21.426 13.4436 21.2647Z" fill="white"/>
</svg>
