<svg width="35" height="35" viewBox="0 0 35 35" fill="none" xmlns="http://www.w3.org/2000/svg">
<path d="M12.9587 10.4559C13.2255 10.463 13.5213 10.4774 13.8027 11.1022C13.9894 11.5181 14.3037 12.2837 14.5598 12.9074C14.7591 13.3927 14.9231 13.792 14.9641 13.8738C15.0579 14.0604 15.1156 14.2758 14.993 14.5271C14.9786 14.5568 14.9649 14.5851 14.9517 14.6124C14.8534 14.8165 14.7834 14.9618 14.6179 15.1518C14.5499 15.2299 14.479 15.3155 14.4084 15.4008C14.2843 15.5509 14.1609 15.7 14.0552 15.8053C13.8676 15.9918 13.6728 16.193 13.8892 16.5664C14.1057 16.9397 14.8632 18.1676 15.9814 19.1585C17.1835 20.2287 18.2289 20.6797 18.7573 20.9077C18.8599 20.952 18.943 20.9879 19.004 21.0182C19.3792 21.2049 19.6028 21.1761 19.8192 20.9249C20.0357 20.6735 20.757 19.8334 21.0096 19.46C21.2549 19.0867 21.5073 19.1442 21.8537 19.2734C22.1999 19.4026 24.0467 20.3073 24.4218 20.494C24.4959 20.5309 24.5653 20.5641 24.6296 20.595C24.8906 20.7201 25.068 20.8052 25.1432 20.932C25.237 21.09 25.237 21.8367 24.9268 22.7127C24.6094 23.5887 23.08 24.4288 22.3874 24.4935C22.3219 24.4996 22.2566 24.5075 22.1894 24.5157C21.5548 24.5924 20.7491 24.6899 17.8786 23.56C14.3416 22.1691 12.0068 18.7181 11.5347 18.0204C11.4975 17.9653 11.4718 17.9274 11.4581 17.909L11.4501 17.8983C11.2353 17.611 9.92144 15.8529 9.92144 14.039C9.92144 12.3035 10.7763 11.4 11.1663 10.9879C11.191 10.9618 11.2138 10.9376 11.2345 10.9154C11.5807 10.5421 11.9848 10.4487 12.2372 10.4487C12.4898 10.4487 12.7423 10.4487 12.9587 10.4559Z" fill="white"/>
<path fill-rule="evenodd" clip-rule="evenodd" d="M3.18525 31.1082C3.06593 31.5413 3.46039 31.941 3.89505 31.8275L10.6141 30.0725C12.735 31.2214 15.1229 31.8317 17.5541 31.8317H17.5613C25.5617 31.8317 32.0833 25.3478 32.0833 17.3777C32.0833 13.5147 30.5754 9.88141 27.8342 7.15283C25.0929 4.42437 21.4497 2.9165 17.5612 2.9165C9.56092 2.9165 3.03931 9.40033 3.03931 17.3706C3.0384 19.9061 3.70765 22.3972 4.97989 24.5939L3.18525 31.1082ZM7.08882 25.1749C7.2446 24.6094 7.16678 24.0051 6.87283 23.4976C5.79344 21.6339 5.22604 19.5203 5.22681 17.3706C5.22681 10.6188 10.7587 5.104 17.5612 5.104C20.8715 5.104 23.9598 6.38294 26.291 8.70325C28.6195 11.021 29.8958 14.0962 29.8958 17.3777C29.8958 24.1293 24.364 29.6442 17.5613 29.6442H17.5541C15.4884 29.6442 13.4584 29.1254 11.656 28.1491C11.1681 27.8848 10.5981 27.8158 10.0613 27.956L6.03276 29.0083L7.08882 25.1749Z" fill="white"/>
</svg>
